<svg viewBox="0 0 64 81" fill="none" xmlns="http://www.w3.org/2000/svg">
<path d="M20.3672 47.2049C20.0802 47.1645 19.9034 47.0815 19.8074 46.95C19.9084 47.0815 20.0802 47.1645 20.3672 47.2049C20.2116 47.4295 20.1348 47.6743 19.9812 47.7411C19.7407 47.8423 19.4961 47.9566 19.2476 48.0446C19.4961 47.9535 19.7407 47.8423 19.9812 47.7411C20.1348 47.6784 20.2106 47.4295 20.3672 47.2049Z" fill="#42A5F5"/>
<path d="M28.6816 37.379C28.6928 37.1969 28.7029 37.0158 28.7109 36.8337C28.7534 35.8322 28.7746 34.8287 28.8059 33.7806C28.7746 34.8287 28.7534 35.8322 28.7109 36.8337C28.6988 37.0158 28.6928 37.1969 28.6816 37.379Z" fill="#42A5F5"/>
<path d="M35.6461 42.4372C35.5279 42.42 35.4087 42.4008 35.2894 42.3815C34.4136 42.2338 33.5379 42.0858 32.6621 41.9374C33.5379 42.0872 34.4136 42.2352 35.2894 42.3815C35.4087 42.4008 35.5279 42.4179 35.6461 42.4372Z" fill="#42A5F5"/>
<path d="M28.5674 39.0643C28.5795 38.8701 28.5937 38.6789 28.6068 38.4897C28.5937 38.6789 28.5795 38.8701 28.5674 39.0643Z" fill="#42A5F5"/>
<path d="M29.2729 40.4331C29.2537 40.3957 29.2325 40.3592 29.2112 40.3248C29.1708 40.2591 29.1294 40.1943 29.0859 40.1306C29.1294 40.1943 29.1708 40.2591 29.2112 40.3248C29.2325 40.3592 29.2537 40.3946 29.2729 40.4331Z" fill="#42A5F5"/>
<path d="M32.6579 41.9374C31.7822 41.7877 30.9064 41.6359 30.0306 41.4822C29.9424 41.4675 29.856 41.4434 29.7729 41.4103C29.856 41.4434 29.9424 41.4675 30.0306 41.4822C30.9044 41.6339 31.7801 41.7857 32.6579 41.9374Z" fill="#42A5F5"/>
<path d="M36.2866 42.9177L36.6635 42.5798L36.3392 42.5353L36.6635 42.5798L36.2866 42.9177Z" fill="#42A5F5"/>
<path d="M36.6494 47.4123L35.9229 47.2616C35.939 47.208 35.9562 47.1604 35.9724 47.1088C35.9562 47.1574 35.939 47.21 35.9229 47.2616L36.6494 47.4123Z" fill="#42A5F5"/>
<path d="M37.2596 46.2621C36.5472 46.6476 37.2435 47.1058 37.105 47.5034C37.2435 47.1099 36.5472 46.6516 37.2596 46.2621Z" fill="#42A5F5"/>
<path d="M34.8306 43.4902C34.9377 43.4022 35.0418 43.3254 35.1428 43.3284C35.0418 43.3284 34.9377 43.4022 34.8306 43.4902Z" fill="#42A5F5"/>
<path d="M36.02 46.9702C36.0504 46.8835 36.0727 46.794 36.0867 46.7032C36.0907 46.6696 36.0927 46.6358 36.0928 46.602C36.0927 46.6358 36.0907 46.6696 36.0867 46.7032C36.0727 46.794 36.0504 46.8835 36.02 46.9702Z" fill="#42A5F5"/>
<path d="M34.0737 43.0249C34.4436 43.031 34.6093 43.2748 34.6315 43.6491C34.6093 43.2697 34.4436 43.0249 34.0737 43.0249Z" fill="#42A5F5"/>
<path d="M35.3395 46.4968C35.3184 46.4983 35.2971 46.4983 35.2759 46.4968C35.2971 46.4983 35.3184 46.4983 35.3395 46.4968Z" fill="#42A5F5"/>
<path d="M35.8027 46.2854C35.7538 46.2931 35.7074 46.3121 35.6672 46.341C35.5786 46.4282 35.4633 46.483 35.3398 46.4968C35.4633 46.483 35.5786 46.4282 35.6672 46.341C35.7074 46.3121 35.7538 46.2931 35.8027 46.2854Z" fill="#42A5F5"/>
<path d="M25.2107 33.9456C25.1984 33.9709 25.1876 33.9969 25.1784 34.0235C25.1415 34.1438 25.0863 34.2578 25.0146 34.3613C25.0863 34.2578 25.1415 34.1438 25.1784 34.0235C25.1876 33.9969 25.1984 33.9709 25.2107 33.9456Z" fill="#42A5F5"/>
<path d="M18.7324 39.6613C18.618 39.739 18.4827 39.7803 18.3444 39.7796C18.2917 39.7846 18.2405 39.8 18.1938 39.8251C18.2405 39.8 18.2917 39.7846 18.3444 39.7796C18.4827 39.7803 18.618 39.739 18.7324 39.6613Z" fill="#42A5F5"/>
<path d="M26.801 34.068L27.0385 34.0427L26.801 34.068C26.7745 34.07 26.7478 34.07 26.7212 34.068C26.7478 34.07 26.7745 34.07 26.801 34.068Z" fill="#42A5F5"/>
<path d="M18.9872 38.5211C18.9811 38.7184 18.9872 38.9187 18.9659 39.1069C18.9597 39.1983 18.9437 39.2888 18.9185 39.377C18.9437 39.2888 18.9597 39.1983 18.9659 39.1069C18.9821 38.9187 18.9811 38.7184 18.9872 38.5211Z" fill="#42A5F5"/>
<path d="M17.8867 40.0619C17.9543 39.995 18.0269 39.9334 18.104 39.8777C18.0269 39.9334 17.9543 39.995 17.8867 40.0619C17.3168 40.6051 16.7418 41.1362 16.6681 42.0103C16.6529 42.1934 16.6317 42.3755 16.6074 42.5575C16.6317 42.3755 16.6529 42.1934 16.6681 42.0103C16.7418 41.1362 17.3168 40.6051 17.8867 40.0619Z" fill="#42A5F5"/>
<path d="M16.4717 44.427C16.5243 44.5026 16.5934 44.5652 16.6738 44.6101C17.1194 44.8266 17.5691 45.032 18.0198 45.2383C17.5691 45.036 17.1194 44.8266 16.6738 44.6101C16.5934 44.5652 16.5243 44.5026 16.4717 44.427Z" fill="#42A5F5"/>
<path d="M16.4131 43.9222C16.403 44.0132 16.3929 44.1043 16.3838 44.1963C16.3871 44.281 16.4184 44.3621 16.4727 44.427C16.4184 44.3621 16.3871 44.281 16.3838 44.1963C16.3929 44.1043 16.403 44.0132 16.4131 43.9222Z" fill="#42A5F5"/>
<path d="M20.5713 36.8611C20.5236 36.8958 20.4736 36.9272 20.4217 36.9552C20.1276 37.1079 19.7588 37.2081 19.4819 37.3689C19.7588 37.2081 20.1276 37.1079 20.4217 36.9552C20.4736 36.9272 20.5236 36.8958 20.5713 36.8611Z" fill="#42A5F5"/>
<path d="M18.8451 39.5378C18.8151 39.5854 18.7767 39.6272 18.7319 39.6613C18.7767 39.6272 18.8151 39.5854 18.8451 39.5378Z" fill="#42A5F5"/>
<path d="M25.0146 34.3613C24.9208 34.4904 24.7969 34.5946 24.6538 34.6648C24.7969 34.5946 24.9208 34.4904 25.0146 34.3613Z" fill="#42A5F5"/>
<path d="M38.2756 47.6855L38.2149 47.7725C38.2149 47.7725 38.2078 47.7785 38.2008 47.7796C38.1937 47.7806 38.2129 47.7796 38.2149 47.7725L38.2756 47.6855Z" fill="#42A5F5"/>
<path d="M25.6751 33.5258C25.6678 33.5243 25.6602 33.5243 25.6529 33.5258C25.6273 33.5333 25.6026 33.5434 25.5791 33.5561C25.6026 33.5434 25.6273 33.5333 25.6529 33.5258C25.6602 33.5243 25.6678 33.5243 25.6751 33.5258Z" fill="#42A5F5"/>
<path d="M21.3222 35.9435C21.3633 36.0267 21.4195 36.1015 21.488 36.1641C21.4195 36.1015 21.3633 36.0267 21.3222 35.9435C21.2262 35.7736 21.1292 35.6997 21.0322 35.6906C21.1201 35.7028 21.2212 35.7766 21.3222 35.9435Z" fill="#42A5F5"/>
<path d="M20.9441 35.7007C20.8272 35.7459 20.7251 35.8226 20.6491 35.9223C20.5874 35.9975 20.5326 36.0781 20.4854 36.1631C20.5326 36.0781 20.5874 35.9975 20.6491 35.9223C20.7251 35.8226 20.8272 35.7459 20.9441 35.7007Z" fill="#42A5F5"/>
<path d="M24.0334 34.9319C23.5392 35.1524 23.0532 35.3942 22.5631 35.6249C22.5025 35.6532 22.4378 35.6785 22.3711 35.7038C22.4378 35.6785 22.5025 35.6532 22.5631 35.6249C23.0532 35.3912 23.5392 35.1494 24.0334 34.9319Z" fill="#42A5F5"/>
<path d="M35.7119 43.0411C35.7173 43.0033 35.7223 42.9639 35.7271 42.9227C35.7223 42.9639 35.7173 43.0033 35.7119 43.0411Z" fill="#42A5F5"/>
<path d="M27.8639 59.8543C27.8366 59.7794 27.8073 59.7046 27.7871 59.6287C27.8073 59.7046 27.8366 59.7794 27.8639 59.8543Z" fill="#42A5F5"/>
<path d="M30.4915 60.6444C30.4138 60.6166 30.3385 60.5828 30.2661 60.5432C30.3385 60.5828 30.4138 60.6166 30.4915 60.6444Z" fill="#42A5F5"/>
<path d="M33.2369 63.5761C33.15 63.5478 33.0611 63.5245 32.9722 63.4992C33.0611 63.5245 33.15 63.5478 33.2369 63.5761Z" fill="#42A5F5"/>
<path d="M22.8377 57.8523C22.8286 57.8807 22.8161 57.9079 22.8003 57.9332C22.8161 57.9079 22.8286 57.8807 22.8377 57.8523Z" fill="#42A5F5"/>
<path d="M26.8546 58.9074C26.7625 58.9488 26.6624 58.9691 26.5615 58.9671C26.6624 58.9691 26.7625 58.9488 26.8546 58.9074Z" fill="#42A5F5"/>
<path d="M18.8503 53.9505L18.2905 53.6672L18.8503 53.9505Z" fill="#42A5F5"/>
<path d="M33.9373 63.6145C33.9068 63.6466 33.8695 63.6715 33.8281 63.6873C33.8695 63.6715 33.9068 63.6466 33.9373 63.6145Z" fill="#42A5F5"/>
<path d="M36.5638 56.783L35.4058 56.0698L36.5638 56.783Z" fill="#42A5F5"/>
<path d="M41.2087 51.1776L41.0562 51.2464L41.2087 51.1776Z" fill="#42A5F5"/>
<path d="M40.7927 48.3552C40.6654 48.3552 40.5381 48.3471 40.4108 48.339C40.3511 48.339 40.2915 48.3278 40.2329 48.3187C40.2915 48.3278 40.3511 48.3349 40.4108 48.339C40.5381 48.3471 40.6654 48.3511 40.7927 48.3552Z" fill="#42A5F5"/>
<path d="M41.8412 49.7734C41.8177 49.7749 41.7941 49.7749 41.7705 49.7734C41.7941 49.7749 41.8177 49.7749 41.8412 49.7734Z" fill="#42A5F5"/>
<path d="M14.6983 49.4862C14.6713 49.447 14.642 49.4076 14.6104 49.3678C14.6386 49.4076 14.6679 49.447 14.6983 49.4862Z" fill="#42A5F5"/>
<path d="M33.3208 59.7977C33.4218 59.9798 33.5229 60.1649 33.6239 60.35C33.5239 60.1649 33.4239 59.9798 33.3208 59.7977Z" fill="#42A5F5"/>
<path d="M34.4375 62.8528C34.4021 62.8659 34.3677 62.8811 34.3364 62.8973C34.3677 62.8841 34.4021 62.869 34.4375 62.8528Z" fill="#42A5F5"/>
<path d="M39.7041 53.6844C39.6232 53.8472 39.526 54.0015 39.4141 54.1447C39.526 54.0015 39.6232 53.8472 39.7041 53.6844Z" fill="#42A5F5"/>
<path d="M35.5701 43.6096C35.5286 43.5752 35.4872 43.5388 35.4468 43.5024C35.4902 43.5388 35.5317 43.5752 35.5701 43.6096Z" fill="#42A5F5"/>
<path d="M35.8994 43.2657L36.2864 42.9177L35.8994 43.2657Z" fill="#42A5F5"/>
<path d="M35.646 42.4371C35.7652 42.4553 35.8825 42.4715 35.9987 42.4877C35.8825 42.4715 35.7652 42.4553 35.646 42.4371Z" fill="#42A5F5"/>
<path d="M35.9985 42.4877L36.3391 42.5353L35.9985 42.4877Z" fill="#42A5F5"/>
<path d="M38.147 47.7795C38.1648 47.7814 38.1827 47.7814 38.2005 47.7795C38.1827 47.7814 38.1648 47.7814 38.147 47.7795Z" fill="#42A5F5"/>
<path d="M35.4499 43.5024C35.4109 43.4665 35.3701 43.4327 35.3276 43.4012C35.3701 43.4327 35.4109 43.4665 35.4499 43.5024Z" fill="#42A5F5"/>
<path d="M35.9131 46.2732C35.9289 46.2721 35.9448 46.2721 35.9606 46.2732C35.9448 46.2721 35.9289 46.2721 35.9131 46.2732Z" fill="#42A5F5"/>
<path d="M25.4351 33.6582C25.4787 33.6184 25.5272 33.5844 25.5796 33.5571C25.5272 33.5844 25.4787 33.6184 25.4351 33.6582Z" fill="#42A5F5"/>
<path d="M18.9868 38.5211C18.9868 38.42 18.9939 38.3188 19.003 38.2288C18.9979 38.3239 18.9898 38.422 18.9868 38.5211Z" fill="#42A5F5"/>
<path d="M18.8452 39.5378C18.8666 39.5062 18.8842 39.4723 18.8978 39.4366C18.8842 39.4723 18.8666 39.5062 18.8452 39.5378Z" fill="#42A5F5"/>
<path d="M17.751 48.2965C17.9975 48.2833 18.2451 48.2641 18.4907 48.2388C18.2451 48.2641 17.9975 48.2854 17.751 48.2965Z" fill="#42A5F5"/>
<path d="M28.6763 39.5571C28.7682 39.6876 28.8612 39.814 28.9521 39.9405C28.8612 39.814 28.7682 39.6866 28.6763 39.5571Z" fill="#42A5F5"/>
<path d="M14.4082 48.9055L14.6669 48.8701L14.4082 48.9055Z" fill="#42A5F5"/>
<path d="M21.4829 36.1671C21.5015 36.1814 21.5223 36.1927 21.5446 36.2004C21.5223 36.1927 21.5015 36.1814 21.4829 36.1671Z" fill="#42A5F5"/>
<path d="M20.6683 36.6132L20.5137 36.3694L20.6683 36.6132Z" fill="#42A5F5"/>
<path d="M23.062 57.5994C23.1102 57.6102 23.1575 57.6247 23.2035 57.6429C23.9108 57.9342 24.6182 58.2316 25.3255 58.523C24.6182 58.2316 23.9108 57.9342 23.2035 57.6429C23.1575 57.6247 23.1102 57.6102 23.062 57.5994Z" fill="#42A5F5"/>
<path d="M27.7256 59.3768C27.7442 59.4205 27.7571 59.4664 27.764 59.5134C27.7693 59.5523 27.7771 59.5908 27.7872 59.6287C27.7771 59.5908 27.7693 59.5523 27.764 59.5134C27.7571 59.4664 27.7442 59.4205 27.7256 59.3768Z" fill="#42A5F5"/>
<path d="M26.9182 58.8751C26.8976 58.8867 26.8763 58.8972 26.8545 58.9064C26.8763 58.8972 26.8976 58.8867 26.9182 58.8751C26.9545 58.8553 26.995 58.8442 27.0364 58.8427C26.995 58.8442 26.9545 58.8553 26.9182 58.8751Z" fill="#42A5F5"/>
<path d="M32.2358 62.8467C32.2712 62.9276 32.3076 63.0075 32.344 63.0874C32.352 63.105 32.3615 63.122 32.3723 63.138C32.3615 63.122 32.352 63.105 32.344 63.0874C32.3066 63.0075 32.2702 62.9276 32.2358 62.8467Z" fill="#42A5F5"/>
<path d="M22.8379 57.8523C22.8677 57.7575 22.8926 57.6613 22.9127 57.564C22.8926 57.6613 22.8677 57.7575 22.8379 57.8523Z" fill="#42A5F5"/>
<path d="M34.2456 55.4153C34.2628 55.4082 34.282 55.3991 34.3052 55.387C34.282 55.3991 34.2628 55.4082 34.2456 55.4153Z" fill="#42A5F5"/>
<path d="M21.3364 57.1077C21.5932 57.4373 21.9285 57.6971 22.3116 57.8634C22.4312 57.9223 22.5584 57.9645 22.6895 57.9888C22.5584 57.9645 22.4312 57.9223 22.3116 57.8634C21.9285 57.6971 21.5932 57.4373 21.3364 57.1077Z" fill="#42A5F5"/>
<path d="M34.4922 62.8356L34.664 62.7769C34.706 62.7625 34.7466 62.7442 34.7853 62.7223C34.7466 62.7442 34.706 62.7625 34.664 62.7769L34.4922 62.8356Z" fill="#42A5F5"/>
<path d="M34.1626 63.0278C34.1865 63.0009 34.2132 62.9769 34.2424 62.9559C34.2132 62.9769 34.1865 63.0009 34.1626 63.0278Z" fill="#42A5F5"/>
<path d="M29.771 59.9595C29.8113 60.0758 29.8719 60.1841 29.9499 60.2792C29.8719 60.1841 29.8113 60.0758 29.771 59.9595Z" fill="#42A5F5"/>
<path d="M41.5513 51.0239L41.7595 50.9298C41.6518 50.8837 41.5516 50.8217 41.4624 50.7457C41.5516 50.8217 41.6518 50.8837 41.7595 50.9298L41.5513 51.0239Z" fill="#42A5F5"/>
<path d="M30.4912 60.6444C30.6537 60.7016 30.8202 60.7466 30.9894 60.779C31.123 60.8115 31.2465 60.8765 31.3491 60.9681C31.2465 60.8765 31.123 60.8115 30.9894 60.779C30.8202 60.7466 30.6537 60.7016 30.4912 60.6444Z" fill="#42A5F5"/>
<path d="M39.8003 53.4052C39.834 53.3305 39.888 53.2668 39.956 53.2212C40.024 53.1756 40.1035 53.15 40.1853 53.1472C40.2963 53.1359 40.4043 53.104 40.5036 53.0532C40.4043 53.104 40.2963 53.1359 40.1853 53.1472C40.1035 53.15 40.024 53.1756 39.956 53.2212C39.888 53.2668 39.834 53.3305 39.8003 53.4052Z" fill="#42A5F5"/>
<path d="M36.2695 55.7835C36.3144 55.8065 36.3573 55.8332 36.3978 55.8634C36.3573 55.8332 36.3144 55.8065 36.2695 55.7835C36.0674 55.6824 35.8855 55.5519 35.835 55.4082C35.8855 55.5519 36.0664 55.6773 36.2695 55.7835Z" fill="#42A5F5"/>
<path d="M28.145 59.5215C28.1763 59.3768 28.2077 59.2291 28.2461 59.0743C28.2077 59.2291 28.1763 59.3768 28.145 59.5215Z" fill="#42A5F5"/>
<path d="M41.3301 49.7108C41.4594 49.7209 41.5827 49.7482 41.6888 49.7633C41.5878 49.7482 41.4594 49.7209 41.3301 49.7108Z" fill="#42A5F5"/>
<path d="M33.9375 63.6145C33.9928 63.5525 34.0249 63.4731 34.0284 63.39C34.0327 63.2765 34.0676 63.1664 34.1295 63.0713C34.0676 63.1664 34.0327 63.2765 34.0284 63.39C34.0249 63.4731 33.9928 63.5525 33.9375 63.6145Z" fill="#42A5F5"/>
<path d="M20.9604 55.6318C20.9802 55.6775 20.9835 55.7286 20.9695 55.7764C20.9835 55.7286 20.9802 55.6775 20.9604 55.6318Z" fill="#42A5F5"/>
<path d="M17.6992 53.3485C17.7336 53.3273 17.7679 53.307 17.8003 53.2888C17.7679 53.307 17.7336 53.3273 17.6992 53.3485Z" fill="#42A5F5"/>
<path d="M16.7212 53.5013C16.9435 53.5013 17.1658 53.5013 17.3871 53.4892C17.4048 53.488 17.4224 53.4853 17.4397 53.4811C17.4224 53.4853 17.4048 53.488 17.3871 53.4892C17.1658 53.4993 16.9435 53.5043 16.7212 53.5013Z" fill="#42A5F5"/>
<path d="M20.7565 55.3718C20.4998 55.1321 20.3401 54.7922 20.1572 54.4705C20.3401 54.7922 20.4998 55.1321 20.7565 55.3718C20.8409 55.4437 20.9097 55.5322 20.9586 55.6318C20.9097 55.5322 20.8409 55.4437 20.7565 55.3718Z" fill="#42A5F5"/>
<path d="M15.1826 51.9606C15.2472 52.0079 15.3026 52.0665 15.3463 52.1336C15.3026 52.0665 15.2472 52.0079 15.1826 51.9606Z" fill="#42A5F5"/>
<path d="M16.0171 53.4568C16.0292 53.4627 16.0421 53.4664 16.0555 53.4679C16.2765 53.4868 16.4984 53.4979 16.7214 53.5013C16.4991 53.5013 16.2771 53.4902 16.0555 53.4679C16.0421 53.4664 16.0292 53.4627 16.0171 53.4568Z" fill="#42A5F5"/>
<path d="M15.3745 52.1821C15.5311 52.4967 15.6322 52.8397 15.7787 53.1594C15.7854 53.1749 15.7935 53.191 15.803 53.2079C15.7935 53.191 15.7854 53.1749 15.7787 53.1594C15.6322 52.8377 15.5311 52.4967 15.3745 52.1821Z" fill="#42A5F5"/>
<path d="M32.8812 59.0086C32.7901 58.7472 32.7858 58.4633 32.869 58.1993C32.7858 58.4633 32.7901 58.7472 32.8812 59.0086Z" fill="#42A5F5"/>
<path d="M34.0647 43.1574L34.0132 43.207L34.0647 43.1574Z" fill="#42A5F5"/>
<path d="M34.1332 43.9404L34.019 43.8716L34.1332 43.9404Z" fill="#42A5F5"/>
<path d="M34.2303 61.5114C34.2232 61.4962 34.2151 61.481 34.207 61.4658L34.0615 61.1876L34.207 61.4658C34.2151 61.481 34.2232 61.4962 34.2303 61.5114Z" fill="#42A5F5"/>
<path d="M19.4282 53.6713C19.5596 53.6713 19.6606 53.7563 19.8142 53.9586C19.6606 53.7563 19.5596 53.6672 19.4282 53.6713Z" fill="#42A5F5"/>
<path d="M42.3144 48.7831C42.3144 48.7588 42.3073 48.7345 42.3033 48.7102C42.2997 48.6935 42.2943 48.6772 42.2871 48.6617C42.252 48.5966 42.2036 48.5395 42.1451 48.4942C42.0866 48.449 42.0194 48.4164 41.9476 48.3987C41.8213 48.3865 41.695 48.3774 41.5676 48.3724C41.313 48.3602 41.0573 48.3572 40.8027 48.3501C40.6754 48.3501 40.547 48.342 40.4207 48.3339C40.3611 48.3339 40.3015 48.3228 40.2429 48.3147C40.065 48.2874 39.8892 48.2408 39.7124 48.2085C39.7659 48.0011 39.8215 47.7937 39.872 47.5843C39.8781 47.559 39.8538 47.5256 39.8478 47.5064C39.7649 47.4963 39.6719 47.5064 39.5921 47.4933C39.5482 47.4901 39.5059 47.4751 39.4698 47.4498C39.3563 47.3554 39.224 47.2865 39.0818 47.2474C38.7574 47.1695 38.5099 47.3708 38.2855 47.6814L38.2249 47.7694C38.2212 47.7732 38.2161 47.7754 38.2107 47.7755C38.1929 47.7773 38.175 47.7773 38.1572 47.7755H38.1269L37.27 46.2621C36.5566 46.6465 37.2538 47.1048 37.1154 47.5024L36.6596 47.4073L35.9331 47.2565C35.9492 47.2029 35.9654 47.1554 35.9826 47.1038L36.0301 46.9632C36.0607 46.8765 36.0827 46.7871 36.0958 46.6961C36.1006 46.6626 36.1029 46.6288 36.1028 46.5949C36.1047 46.507 36.0875 46.4196 36.0523 46.339C36.0454 46.3245 36.0373 46.3106 36.0281 46.2975C36.0225 46.2906 36.0151 46.2854 36.0068 46.2823C35.9946 46.2787 35.9821 46.276 35.9695 46.2742C35.9536 46.2731 35.9378 46.2731 35.922 46.2742C35.9058 46.2742 35.8876 46.2742 35.8684 46.2742C35.8497 46.2754 35.8311 46.2782 35.8128 46.2823C35.7637 46.2898 35.7172 46.3093 35.6774 46.339C35.5884 46.4255 35.4733 46.4799 35.35 46.4938C35.3285 46.4953 35.3069 46.4953 35.2853 46.4938C35.2641 46.4938 35.2429 46.4938 35.2217 46.4938C35.1356 46.4803 35.0512 46.4576 34.9701 46.426C34.869 46.3875 34.768 46.342 34.6609 46.3127C34.5813 46.2888 34.5039 46.2583 34.4294 46.2216L34.3506 46.1812C34.2425 46.1255 34.1263 46.0608 33.9889 45.993L34.9367 44.2581L33.7948 43.9596V43.0492C33.8894 43.026 33.9865 43.0145 34.0839 43.0148C34.4537 43.0209 34.6194 43.2647 34.6416 43.639C34.6879 43.6077 34.7324 43.5739 34.775 43.5378L34.8397 43.4852C34.9478 43.3972 35.0519 43.3203 35.153 43.3233C35.2204 43.3303 35.2845 43.3563 35.3379 43.3982C35.3783 43.4275 35.4187 43.4619 35.4602 43.4994C35.5016 43.5368 35.542 43.5722 35.5824 43.6066L35.6441 43.6551C35.6572 43.554 35.6703 43.4528 35.6845 43.3355L35.7219 43.0381C35.7273 43.0003 35.7323 42.9608 35.737 42.9197C35.8482 43.1402 35.8937 43.2323 35.9088 43.2636L36.2969 42.9156L36.6738 42.5767L36.3494 42.5322L36.0078 42.4847C35.8927 42.4695 35.7744 42.4523 35.6562 42.4341C35.538 42.4159 35.4187 42.3987 35.2995 42.3785C34.4237 42.2308 33.548 42.0827 32.6722 41.9344C31.7964 41.786 30.9206 41.6342 30.0449 41.4791C29.9567 41.4645 29.8703 41.4404 29.7872 41.4073C29.711 41.3768 29.6409 41.333 29.58 41.2778C29.5149 41.214 29.4644 41.1368 29.432 41.0516C29.3995 40.9664 29.3859 40.8751 29.3921 40.7841C29.3889 40.6811 29.3633 40.58 29.3173 40.4877C29.3082 40.4685 29.2991 40.4493 29.289 40.4311C29.2702 40.3926 29.2499 40.3562 29.2284 40.3218C29.188 40.2561 29.1455 40.1923 29.1031 40.1276C29.0606 40.0629 29.0152 40.0001 28.9697 39.9374C28.8788 39.811 28.7858 39.6845 28.6938 39.554L28.7949 39.4953L29.3476 39.1787L29.3001 39.0613H28.5827C28.5948 38.8671 28.6079 38.6756 28.6221 38.4867C28.6484 38.1094 28.6756 37.7412 28.6969 37.374C28.708 37.1909 28.7181 37.0098 28.7252 36.8277C28.7686 35.8262 28.7888 34.8226 28.8262 33.7746L28.5513 33.8171L28.0309 33.899C27.6944 33.9526 27.3751 34.0002 27.0578 34.0376C26.979 34.0457 26.9002 34.0548 26.8204 34.0619C26.7938 34.0634 26.7671 34.0634 26.7405 34.0619C26.6563 34.0563 26.5731 34.04 26.493 34.0133C26.4374 33.9951 26.3828 33.9739 26.3293 33.9506C26.2757 33.9273 26.2232 33.9021 26.1736 33.8778C25.9978 33.7898 25.8139 33.5207 25.6957 33.5176C25.6883 33.5166 25.6808 33.5166 25.6734 33.5176C25.6478 33.5249 25.623 33.5351 25.5997 33.548C25.547 33.5753 25.4981 33.6093 25.4542 33.6491C25.3616 33.7295 25.2854 33.8271 25.2298 33.9364C25.2178 33.9618 25.2074 33.9878 25.1985 34.0143C25.1613 34.1348 25.1058 34.2488 25.0338 34.3522C24.9405 34.4817 24.8165 34.586 24.673 34.6557C24.6346 34.6749 24.5942 34.6931 24.5508 34.7114C24.384 34.7781 24.2183 34.8499 24.0536 34.9238C23.5595 35.1443 23.0734 35.3861 22.5833 35.6168C22.5227 35.6451 22.457 35.6714 22.3913 35.6957C22.2925 35.7303 22.1957 35.7705 22.1013 35.816C22.0154 35.8543 21.9401 35.913 21.882 35.987C21.781 36.1236 21.7022 36.1893 21.6314 36.1995C21.6095 36.2046 21.5867 36.2046 21.5647 36.1995C21.5424 36.192 21.5215 36.1807 21.5031 36.1661C21.4346 36.1035 21.3784 36.0287 21.3374 35.9455C21.2363 35.7756 21.1444 35.7017 21.0474 35.6926H21.0059C20.9915 35.6939 20.9773 35.6966 20.9635 35.7007C20.8469 35.7454 20.745 35.8218 20.6694 35.9213C20.6078 35.9967 20.5527 36.0772 20.5047 36.162L20.4562 36.2409L20.536 36.3684C20.5876 36.4514 20.6371 36.5313 20.6886 36.6122C20.7139 36.6527 20.7392 36.6941 20.7664 36.7366L20.6735 36.8014L20.5916 36.86C20.5438 36.895 20.4934 36.9265 20.4411 36.9541C20.148 37.1069 19.7792 37.207 19.5023 37.3679C19.4296 37.4093 19.3618 37.4589 19.3002 37.5156C19.2619 37.5516 19.228 37.592 19.1991 37.636C19.1078 37.7875 19.0515 37.9575 19.0344 38.1337C19.0344 38.165 19.0274 38.1964 19.0243 38.2278C19.0152 38.3229 19.0102 38.421 19.0082 38.5201C19.0021 38.7174 19.0031 38.9187 18.9869 39.1059C18.9806 39.1973 18.9647 39.2879 18.9394 39.376C18.9334 39.3952 18.9263 39.4154 18.9192 39.4336C18.9053 39.4691 18.8877 39.503 18.8667 39.5348C18.8368 39.5829 18.7981 39.6247 18.7525 39.6582C18.638 39.7359 18.5028 39.7774 18.3645 39.7776C18.312 39.7815 18.261 39.7967 18.2149 39.8221C18.1837 39.8375 18.1537 39.8551 18.125 39.8747C18.0477 39.9301 17.9751 39.9917 17.9077 40.0588C17.3378 40.6021 16.7618 41.1332 16.6891 42.0072C16.6739 42.1903 16.6527 42.3724 16.6284 42.5545C16.5678 43.0097 16.489 43.465 16.4344 43.9192C16.4233 44.0102 16.4132 44.1013 16.4051 44.1933C16.4081 44.2783 16.4394 44.3599 16.494 44.425C16.5468 44.5002 16.6159 44.5625 16.6961 44.6071C17.1407 44.8236 17.5914 45.0289 18.0411 45.2353C18.4908 45.4417 18.9405 45.6491 19.3831 45.8706C19.4604 45.912 19.5291 45.968 19.5852 46.0355C19.6862 46.1549 19.767 46.3046 19.7529 46.4068C19.7242 46.5507 19.7318 46.6995 19.7751 46.8397C19.7896 46.878 19.8093 46.9141 19.8337 46.947C19.9297 47.0785 20.1066 47.1614 20.3925 47.2019C20.2379 47.4265 20.1611 47.6713 20.0075 47.7381C19.767 47.8392 19.5225 47.9535 19.2739 48.0416C19.2113 48.0648 19.1486 48.0861 19.086 48.1063C18.9012 48.1679 18.7105 48.2103 18.5171 48.2328C18.2705 48.2584 18.0236 48.2776 17.7764 48.2904C17.2822 48.3187 16.7851 48.3268 16.2889 48.3369C16.0403 48.342 15.7917 48.3471 15.5442 48.3552C15.4152 48.3546 15.2866 48.3672 15.1602 48.3926C15.123 48.4012 15.0868 48.4134 15.052 48.429C14.9187 48.4917 14.8307 48.6121 14.8328 48.8458L14.6933 48.864L14.4346 48.8994L14.3022 48.9176C14.3467 48.9864 14.3952 49.0512 14.4437 49.1149C14.5094 49.1999 14.5751 49.2818 14.6367 49.3617C14.667 49.4012 14.6974 49.4406 14.7246 49.4801C14.8202 49.6027 14.8862 49.7456 14.9176 49.8979C14.9312 49.9818 14.9494 50.0649 14.9722 50.1467L15.0177 50.3177C15.0995 50.6313 15.1501 50.9571 14.857 51.2717C14.6549 51.4872 14.6782 51.7593 15.0591 51.8787C15.0946 51.8899 15.1285 51.9056 15.1602 51.9252L15.2097 51.9576C15.269 52.0062 15.3198 52.0643 15.3602 52.1295C15.3703 52.1457 15.3794 52.1619 15.3875 52.1781C15.5452 52.4927 15.6462 52.8357 15.7917 53.1553C15.7988 53.1715 15.8069 53.1877 15.815 53.2039C15.8613 53.3053 15.9352 53.3915 16.0282 53.4527C16.0403 53.4586 16.0532 53.4624 16.0666 53.4639C16.2875 53.4834 16.5092 53.4946 16.7315 53.4973C16.9538 53.5 17.1761 53.4959 17.3984 53.4851C17.4162 53.4844 17.4338 53.4817 17.451 53.477C17.5441 53.4472 17.6318 53.4025 17.7107 53.3445C17.745 53.3233 17.7794 53.303 17.8117 53.2848L17.741 53.386L18.2978 53.6622L18.8596 53.9414C19.1415 53.7694 19.3052 53.6713 19.4366 53.6662C19.568 53.6611 19.669 53.7512 19.8236 53.9535C19.8681 54.0122 19.9166 54.0789 19.9712 54.1558C20.0416 54.2555 20.1067 54.3588 20.1662 54.4654C20.3491 54.7871 20.5088 55.127 20.7654 55.3667C20.8506 55.4383 20.9195 55.5273 20.9675 55.6277C20.988 55.6729 20.9913 55.724 20.9766 55.7714C20.9508 55.8345 20.9059 55.8879 20.8483 55.9241C20.7507 55.9892 20.6495 56.0487 20.5451 56.1022C20.6553 56.2256 20.7563 56.3521 20.8554 56.4795C21.0191 56.691 21.1747 56.9044 21.3414 57.1027C21.598 57.4325 21.9333 57.6924 22.3165 57.8584C22.4361 57.9169 22.5628 57.9594 22.6935 57.9848C22.7056 57.9859 22.7177 57.9859 22.7298 57.9848C22.7461 57.9819 22.7615 57.9754 22.7751 57.966C22.7887 57.9566 22.8002 57.9444 22.8087 57.9302C22.8252 57.9052 22.8381 57.8779 22.8471 57.8493C22.8769 57.7546 22.9015 57.6583 22.9208 57.561C22.9693 57.5741 23.0219 57.5842 23.0674 57.5964C23.1155 57.6073 23.1628 57.6219 23.2088 57.6399C23.9162 57.9312 24.6235 58.2286 25.3309 58.52C25.5673 58.6171 25.8031 58.7132 26.0382 58.8083L26.0898 58.8285L26.1908 58.871L26.2424 58.8912C26.2767 58.9034 26.3111 58.9155 26.3434 58.9256L26.3959 58.9398C26.4485 58.9533 26.5024 58.9611 26.5566 58.9631C26.6576 58.9661 26.7579 58.9457 26.8497 58.9034C26.8715 58.8942 26.8927 58.8837 26.9133 58.872C26.9497 58.8521 26.9902 58.841 27.0316 58.8397C27.1246 58.8384 27.2163 58.8629 27.2963 58.9105C27.3426 58.9355 27.3865 58.9647 27.4277 58.9975C27.4703 59.0317 27.5102 59.0693 27.5469 59.1098C27.584 59.1494 27.6178 59.1921 27.648 59.2372C27.6763 59.2804 27.7007 59.3261 27.7207 59.3738C27.7393 59.4175 27.7522 59.4634 27.7591 59.5104C27.7644 59.5493 27.7722 59.5878 27.7824 59.6257C27.8026 59.7016 27.8309 59.7764 27.8581 59.8513C27.8723 59.889 27.8854 59.9265 27.8976 59.9636L28.0481 59.9464C28.0784 59.8047 28.1087 59.6631 28.1401 59.5184C28.1714 59.3738 28.2027 59.2261 28.2361 59.0713L29.6083 59.2989C29.6589 59.4689 29.6912 59.6216 29.7266 59.7592C29.7448 59.828 29.7629 59.8928 29.7852 59.9545C29.8255 60.0707 29.886 60.179 29.964 60.2741C30.0523 60.3806 30.1595 60.4698 30.2803 60.5372C30.3529 60.5764 30.4282 60.6102 30.5057 60.6383C30.6681 60.6955 30.8347 60.7405 31.0038 60.7729C31.1373 60.8057 31.2608 60.8706 31.3636 60.962C31.4234 61.0126 31.4732 61.074 31.5101 61.1431C31.7031 61.5397 31.8698 61.9474 32.0406 62.3571C32.1083 62.5199 32.177 62.6828 32.2488 62.8437C32.2841 62.9246 32.3205 63.0045 32.3569 63.0844C32.365 63.102 32.3744 63.1189 32.3852 63.135C32.4615 63.2367 32.5604 63.3192 32.6742 63.3758L32.7298 63.4031C32.8129 63.4404 32.8987 63.4715 32.9864 63.4962C33.0744 63.5215 33.1643 63.5447 33.2512 63.573C33.2795 63.5822 33.3088 63.5923 33.3371 63.6034C33.3654 63.6145 33.3927 63.6257 33.421 63.6388C33.476 63.6653 33.534 63.6849 33.5938 63.6975C33.6759 63.7166 33.7617 63.712 33.8413 63.6843C33.8831 63.6688 33.9208 63.6439 33.9515 63.6115C34.0068 63.5494 34.0389 63.47 34.0424 63.3869C34.0474 63.2736 34.0822 63.1637 34.1435 63.0682C34.1539 63.0529 34.1653 63.0384 34.1778 63.0247C34.2015 62.9984 34.2279 62.9746 34.2566 62.9539C34.2856 62.9327 34.3164 62.9141 34.3486 62.8983C34.3815 62.8817 34.4152 62.8668 34.4497 62.8538L34.5042 62.8335L34.676 62.7759C34.7179 62.761 34.7584 62.7428 34.7973 62.7213C34.8367 62.699 34.8761 62.6737 34.9165 62.6464C34.9963 62.5928 35.0802 62.5301 35.1782 62.4684C35.0923 62.349 35.0165 62.1972 34.9438 62.087C34.9276 62.0627 34.9115 62.0404 34.8963 62.0202C34.8818 62.0028 34.8659 61.9866 34.8488 61.9716C34.8298 61.9529 34.8047 61.9417 34.7781 61.9403C34.7558 61.9403 34.7346 61.9403 34.7134 61.9403C34.6251 61.9328 34.5405 61.9009 34.4692 61.8482C34.3978 61.7955 34.3425 61.7241 34.3092 61.6419C34.287 61.6004 34.2657 61.5569 34.2435 61.5124C34.2354 61.4972 34.2284 61.482 34.2203 61.4679L34.0748 61.1886C33.9282 60.9094 33.7837 60.6292 33.6362 60.351C33.5351 60.1659 33.4341 59.9808 33.333 59.7987C33.2815 59.7066 33.232 59.6166 33.1764 59.5255C33.1208 59.4345 33.0693 59.3455 33.0137 59.2564C32.9812 59.2027 32.9522 59.147 32.9268 59.0895C32.9137 59.0622 32.9036 59.0339 32.8935 59.0066C32.8024 58.7452 32.7981 58.4613 32.8814 58.1973C32.8965 58.1457 32.9137 58.0961 32.9329 58.0435L32.9632 57.9676C33.325 57.1148 33.7625 56.2934 34.1708 55.4608C34.1742 55.4544 34.1795 55.4491 34.1859 55.4456C34.2091 55.4331 34.2331 55.422 34.2577 55.4123L34.3173 55.3849L34.8609 55.7198L35.4177 56.0617L36.5747 56.7699C36.6259 56.6146 36.6505 56.4518 36.6475 56.2883C36.6475 56.2661 36.6475 56.2438 36.6394 56.2226C36.6336 56.1813 36.6227 56.1409 36.6071 56.1022C36.5666 56.0026 36.4981 55.9169 36.41 55.8554C36.3694 55.8254 36.3265 55.7987 36.2817 55.7754C36.0796 55.6692 35.8977 55.5438 35.8472 55.4001C35.8424 55.387 35.8387 55.3734 35.8361 55.3597C35.8268 55.3019 35.8383 55.2428 35.8684 55.1927L39.1919 54.8609C39.2425 54.6161 39.2415 54.4563 39.3092 54.3238C39.3432 54.2587 39.3813 54.1958 39.4234 54.1356C39.5357 53.9924 39.6332 53.8382 39.7144 53.6753C39.7276 53.6423 39.7387 53.6085 39.7477 53.5741C39.763 53.512 39.784 53.4514 39.8104 53.3931C39.8438 53.3184 39.8976 53.2546 39.9654 53.209C40.0333 53.1634 40.1127 53.1378 40.1944 53.1351C40.3057 53.1237 40.4139 53.0918 40.5137 53.041C40.5727 53.0095 40.625 52.9665 40.6673 52.9146C40.6941 52.8814 40.7162 52.8446 40.733 52.8053C40.7507 52.7641 40.7636 52.721 40.7714 52.6768C40.7915 52.5423 40.7874 52.4052 40.7592 52.2722C40.7148 52.0314 40.6471 51.7734 40.7269 51.558C40.7516 51.4902 40.791 51.4287 40.8421 51.3779C40.9072 51.316 40.9828 51.2664 41.0654 51.2312L41.219 51.1624L41.5616 51.0087L41.7697 50.9146C41.6599 50.869 41.5577 50.8069 41.4666 50.7305C41.374 50.6527 41.3042 50.5513 41.2645 50.4371C41.1877 50.2034 41.2513 49.9414 41.3352 49.6956C41.4646 49.7057 41.5868 49.733 41.694 49.7482C41.7197 49.7523 41.7457 49.755 41.7718 49.7563C41.795 49.7577 41.8183 49.7577 41.8415 49.7563C41.8828 49.7558 41.9233 49.7454 41.9597 49.7259C42.0493 49.6758 42.1268 49.6067 42.1871 49.5236C42.2276 49.4671 42.2589 49.4047 42.28 49.3385C42.2944 49.2942 42.3052 49.2489 42.3124 49.2029C42.3195 49.156 42.3235 49.1087 42.3245 49.0613C42.327 49.0127 42.327 48.9641 42.3245 48.9156C42.3265 48.8802 42.3215 48.8316 42.3144 48.7831Z" fill="#F2F9FF"/>
<path d="M39.1828 54.87L35.8562 55.1998C35.826 55.2502 35.8149 55.3098 35.8249 55.3677C35.8149 55.3098 35.826 55.2502 35.8562 55.1998L39.1828 54.87C39.2323 54.6252 39.2323 54.4653 39.299 54.3318C39.3336 54.2672 39.3721 54.2047 39.4142 54.1447C39.3721 54.2047 39.3336 54.2672 39.299 54.3318C39.2323 54.4613 39.2323 54.6252 39.1828 54.87Z" fill="#42A5F5"/>
<path d="M18.1035 39.8777C18.1324 39.8583 18.1624 39.8408 18.1935 39.8251C18.1624 39.8408 18.1324 39.8583 18.1035 39.8777Z" fill="#42A5F5"/>
<path d="M18.4927 48.2388C18.6862 48.2165 18.8768 48.1741 19.0616 48.1124C18.8768 48.1741 18.6862 48.2165 18.4927 48.2388Z" fill="#42A5F5"/>
<path d="M20.9854 35.6936C20.9991 35.6921 21.013 35.6921 21.0268 35.6936C21.013 35.6921 20.9991 35.6921 20.9854 35.6936Z" fill="#42A5F5"/>
<path d="M34.3052 55.387C34.484 55.4982 34.6659 55.6095 34.8488 55.7218C34.6659 55.6095 34.484 55.4982 34.3052 55.387Z" fill="#42A5F5"/>
<path d="M28.0107 33.9051L28.5322 33.8231L28.0107 33.9051Z" fill="#42A5F5"/>
<path d="M32.9209 58.0465L32.9512 57.9707C33.313 57.1179 33.7505 56.2964 34.1638 55.4639C33.7546 56.2964 33.317 57.1179 32.9512 57.9707L32.9209 58.0465Z" fill="#42A5F5"/>
<path d="M28.8061 33.7806L28.5322 33.8231L28.8061 33.7806Z" fill="#42A5F5"/>
<path d="M28.6817 37.379C28.6605 37.7442 28.6332 38.1125 28.6069 38.4918C28.6332 38.1125 28.6605 37.7442 28.6817 37.379Z" fill="#42A5F5"/>
<path d="M33.1641 59.5245C33.1106 59.4345 33.057 59.3444 33.0025 59.2554C32.9692 59.2019 32.9399 59.1462 32.9146 59.0885C32.9399 59.1462 32.9692 59.2019 33.0025 59.2554C33.057 59.3444 33.1106 59.4345 33.1641 59.5245Z" fill="#42A5F5"/>
<path d="M36.5635 56.783C36.6148 56.6278 36.6391 56.4649 36.6352 56.3015C36.6391 56.4649 36.6148 56.6278 36.5635 56.783Z" fill="#42A5F5"/>
<path d="M29.771 59.9595C29.7498 59.8978 29.7306 59.8331 29.7124 59.7643C29.7306 59.8331 29.7498 59.8978 29.771 59.9595Z" fill="#42A5F5"/>
<path d="M34.2456 55.4153C34.221 55.425 34.1971 55.4361 34.1738 55.4487C34.1971 55.4361 34.221 55.425 34.2456 55.4153Z" fill="#42A5F5"/>
<path d="M36.5947 56.1093C36.6101 56.1484 36.6213 56.1891 36.6281 56.2306C36.6213 56.1891 36.6101 56.1484 36.5947 56.1093Z" fill="#42A5F5"/>
<path d="M27.6528 59.2402C27.6224 59.1953 27.5886 59.1527 27.5518 59.1128C27.5886 59.1527 27.6224 59.1953 27.6528 59.2402Z" fill="#42A5F5"/>
<path d="M40.7239 52.8174C40.7068 52.8565 40.6847 52.8933 40.6582 52.9267C40.6847 52.8933 40.7068 52.8565 40.7239 52.8174Z" fill="#42A5F5"/>
<path d="M42.3111 49.2211C42.3043 49.2672 42.2935 49.3125 42.2788 49.3567C42.2935 49.3125 42.3043 49.2672 42.3111 49.2211Z" fill="#42A5F5"/>
<path d="M27.4326 59.0005C27.3916 58.9679 27.348 58.9388 27.3022 58.9135C27.348 58.9388 27.3916 58.9679 27.4326 59.0005Z" fill="#42A5F5"/>
<path d="M42.3246 49.0795C42.3228 49.1269 42.3184 49.1742 42.3115 49.2211C42.3184 49.1742 42.3228 49.1269 42.3246 49.0795Z" fill="#42A5F5"/>
<path d="M40.833 51.3931C40.7814 51.4437 40.7417 51.5052 40.7168 51.5731C40.7417 51.5052 40.7814 51.4437 40.833 51.3931Z" fill="#42A5F5"/>
<path d="M15.0269 48.4351C15.0613 48.4195 15.0972 48.4073 15.134 48.3987C15.0972 48.4073 15.0613 48.4195 15.0269 48.4351Z" fill="#42A5F5"/>
<path d="M41.9595 49.7431C41.9231 49.7624 41.8826 49.7728 41.8413 49.7734C41.8826 49.7728 41.9231 49.7624 41.9595 49.7431C42.0488 49.693 42.1261 49.6239 42.1859 49.5408C42.1261 49.6239 42.0488 49.693 41.9595 49.7431Z" fill="#42A5F5"/>
<path d="M40.7493 52.2873C40.7774 52.4204 40.7815 52.5575 40.7614 52.692C40.7815 52.5575 40.7774 52.4204 40.7493 52.2873C40.7058 52.0466 40.6371 51.7886 40.7169 51.5731C40.6371 51.7886 40.7058 52.0466 40.7493 52.2873Z" fill="#42A5F5"/>
<path d="M15.5181 48.3612C15.7656 48.3531 16.0142 48.3481 16.2628 48.343C16.0142 48.3481 15.7646 48.3531 15.5181 48.3612Z" fill="#42A5F5"/>
<path d="M41.2647 50.4523C41.1869 50.2186 41.2506 49.9566 41.3344 49.7108C41.2506 49.9566 41.1869 50.2186 41.2647 50.4523Z" fill="#42A5F5"/>
<path d="M14.9913 50.3228C14.9771 50.2661 14.961 50.2095 14.9458 50.1528C14.961 50.2075 14.9771 50.2661 14.9913 50.3228Z" fill="#42A5F5"/>
<path d="M15.0267 48.4351C14.8933 48.4978 14.8044 48.6171 14.8064 48.8508L14.667 48.87L14.8064 48.8508C14.8044 48.6171 14.8933 48.4978 15.0267 48.4351Z" fill="#42A5F5"/>
<path d="M22.7248 57.9879C22.7131 57.9889 22.7012 57.9889 22.6895 57.9879C22.7012 57.9889 22.7131 57.9889 22.7248 57.9879Z" fill="#42A5F5"/>
<path d="M26.5616 58.9661C26.5073 58.9639 26.4535 58.9561 26.4009 58.9428C26.4535 58.9561 26.5073 58.9639 26.5616 58.9661Z" fill="#42A5F5"/>
<path d="M26.1938 58.874L26.0928 58.8315L26.1938 58.874Z" fill="#42A5F5"/>
<path d="M26.3486 58.9287C26.3143 58.9185 26.2799 58.9064 26.2476 58.8932C26.2799 58.9074 26.3143 58.9185 26.3486 58.9287Z" fill="#42A5F5"/>
<path d="M26.7211 34.069C26.6375 34.0644 26.5549 34.0484 26.4756 34.0214C26.5549 34.0484 26.6375 34.0644 26.7211 34.069Z" fill="#42A5F5"/>
<path d="M22.9165 57.564C22.964 57.5771 23.0175 57.5872 23.062 57.5994C23.0135 57.5872 22.961 57.5771 22.9165 57.564Z" fill="#42A5F5"/>
<path d="M28.7798 39.4984L29.3325 39.1817L29.285 39.0644L29.3325 39.1817L28.7798 39.4984Z" fill="#42A5F5"/>
<path d="M26.3089 33.9587C26.2553 33.9354 26.2028 33.9101 26.1533 33.8848C25.9774 33.7978 25.7935 33.5287 25.6753 33.5257C25.7935 33.5257 25.9784 33.7978 26.1533 33.8848C26.2028 33.9101 26.2553 33.9354 26.3089 33.9587Z" fill="#42A5F5"/>
<path d="M20.8403 55.9292C20.7426 55.9941 20.6414 56.0536 20.5371 56.1073C20.6462 56.2297 20.7473 56.3571 20.8463 56.4846C20.7453 56.3571 20.6442 56.2297 20.5371 56.1073C20.6414 56.0536 20.7426 55.9941 20.8403 55.9292Z" fill="#42A5F5"/>
<path d="M27.0366 58.8427C27.13 58.8413 27.222 58.8658 27.3024 58.9135C27.222 58.8658 27.13 58.8413 27.0366 58.8427Z" fill="#42A5F5"/>
<path d="M29.5628 41.2809C29.4977 41.2171 29.4473 41.1399 29.415 41.0547C29.3827 40.9694 29.3694 40.8781 29.3759 40.7872C29.3727 40.6862 29.3486 40.587 29.3052 40.4958C29.351 40.5882 29.3769 40.6892 29.381 40.7923C29.3745 40.882 29.3874 40.9721 29.4188 41.0564C29.4502 41.1407 29.4993 41.2173 29.5628 41.2809Z" fill="#42A5F5"/>
<path d="M35.1426 43.3284C35.2102 43.3346 35.2746 43.3606 35.3275 43.4033C35.2746 43.3606 35.2102 43.3346 35.1426 43.3284Z" fill="#42A5F5"/>
<path d="M35.7266 42.9237C35.8377 43.1442 35.8832 43.2363 35.8994 43.2667C35.8832 43.2363 35.8377 43.1442 35.7266 42.9237Z" fill="#42A5F5"/>
<path d="M21.8619 35.992C21.9203 35.918 21.9955 35.8591 22.0812 35.8201C21.9955 35.8591 21.9203 35.918 21.8619 35.992C21.7609 36.1286 21.6821 36.1944 21.6113 36.2045C21.6821 36.1923 21.7629 36.1286 21.8619 35.992Z" fill="#42A5F5"/>
<path d="M17.8027 53.2888L17.7319 53.39L18.2908 53.6672L17.734 53.391L17.8027 53.2888Z" fill="#42A5F5"/>
<path d="M14.4083 48.9055L14.2759 48.9237C14.321 48.9911 14.3685 49.0569 14.4184 49.1209C14.3685 49.0575 14.321 48.9918 14.2759 48.9237L14.4083 48.9055Z" fill="#42A5F5"/>
<path d="M19.36 45.8726C18.9184 45.6511 18.4687 45.4437 18.019 45.2383C18.4687 45.4407 18.9184 45.6511 19.36 45.8726C19.4371 45.9149 19.5056 45.9711 19.5621 46.0385C19.5056 45.9711 19.4371 45.9149 19.36 45.8726Z" fill="#42A5F5"/>
<path d="M19.7268 46.4098C19.7409 46.3086 19.6631 46.1579 19.5601 46.0385C19.6611 46.1579 19.7409 46.3076 19.7268 46.4098C19.6986 46.5537 19.7062 46.7024 19.749 46.8428C19.7062 46.7024 19.6986 46.5537 19.7268 46.4098Z" fill="#42A5F5"/>
<path d="M14.8305 51.2777C15.1235 50.9631 15.073 50.6374 14.9911 50.3228C15.073 50.6374 15.1235 50.9631 14.8305 51.2777C14.6284 51.4932 14.6516 51.7653 15.0326 51.8847C15.068 51.896 15.102 51.9116 15.1336 51.9312C15.102 51.9116 15.068 51.896 15.0326 51.8847C14.6526 51.7653 14.6304 51.4932 14.8305 51.2777Z" fill="#42A5F5"/>
<path d="M28.2412 59.0743L29.5943 59.304C29.6448 59.4739 29.6771 59.6267 29.7125 59.7643C29.6771 59.6267 29.6448 59.4739 29.5943 59.304L28.2412 59.0743Z" fill="#42A5F5"/>
<path d="M20.4856 36.163C20.4694 36.1903 20.4532 36.2166 20.436 36.2419L20.5159 36.3694L20.436 36.2419C20.4532 36.2166 20.4694 36.1903 20.4856 36.163Z" fill="#42A5F5"/>
<path d="M19.2799 37.5166C19.2419 37.5529 19.208 37.5933 19.1788 37.637C19.0878 37.7885 19.0318 37.9586 19.0151 38.1347C19.0318 37.9586 19.0878 37.7885 19.1788 37.637C19.208 37.5933 19.2419 37.5529 19.2799 37.5166Z" fill="#42A5F5"/>
<path d="M18.8506 53.9505C19.1325 53.7785 19.2962 53.6804 19.4286 53.6753C19.3013 53.6763 19.1325 53.7744 18.8506 53.9505Z" fill="#42A5F5"/>
<path d="M20.6685 36.6132L20.7463 36.7376L20.6533 36.8024L20.7463 36.7376L20.6685 36.6132Z" fill="#42A5F5"/>
<path d="M42.2771 48.6657C42.2418 48.601 42.1935 48.5443 42.1352 48.4993C42.077 48.4542 42.01 48.4216 41.9386 48.4037C41.8113 48.3916 41.6849 48.3825 41.5576 48.3764C41.6849 48.3825 41.8113 48.3916 41.9386 48.4037C42.01 48.4216 42.077 48.4542 42.1352 48.4993C42.1935 48.5443 42.2418 48.601 42.2771 48.6657Z" fill="#42A5F5"/>
<path d="M39.8618 47.5894C39.8123 47.7977 39.7608 48.0061 39.7021 48.2135C39.7567 48.0061 39.8143 47.7977 39.8618 47.5894Z" fill="#42A5F5"/>
<path d="M42.3042 48.7911C42.3113 48.8407 42.3173 48.8923 42.3204 48.9378C42.3173 48.8852 42.3113 48.8367 42.3042 48.7911Z" fill="#42A5F5"/>
<path d="M39.582 47.4983C39.5381 47.495 39.4959 47.48 39.4598 47.4548C39.3465 47.3607 39.2146 47.2918 39.0728 47.2525C39.2146 47.2918 39.3465 47.3607 39.4598 47.4548C39.4959 47.48 39.5381 47.495 39.582 47.4983Z" fill="#42A5F5"/>
<path d="M35.7118 43.0411L35.6714 43.3385L35.7118 43.0411Z" fill="#42A5F5"/>
<path d="M34.9043 62.6504C34.9841 62.5968 35.069 62.5341 35.167 62.4724C35.0801 62.353 35.0043 62.2013 34.9316 62.091C35.0043 62.2013 35.0801 62.353 35.167 62.4724C35.065 62.5321 34.9841 62.5948 34.9043 62.6504Z" fill="#42A5F5"/>
<path d="M34.8839 62.0223C34.8699 62.0044 34.854 61.9881 34.8364 61.9737C34.854 61.9881 34.8699 62.0044 34.8839 62.0223Z" fill="#42A5F5"/>
<path d="M38.147 47.7795H38.1167C37.8317 47.2737 37.5437 46.7679 37.2598 46.2712C37.5437 46.7709 37.8317 47.2767 38.1167 47.7795H38.147Z" fill="#42A5F5"/>
<path d="M34.7021 61.9423C34.6138 61.935 34.5293 61.9033 34.458 61.8508C34.3866 61.7983 34.3312 61.727 34.2979 61.6449C34.3312 61.727 34.3866 61.7983 34.458 61.8508C34.5293 61.9033 34.6138 61.935 34.7021 61.9423Z" fill="#42A5F5"/>
<path d="M33.7847 43.0542V43.9647L34.9276 44.2631L33.7847 43.9647V43.0542C33.8792 43.0306 33.9763 43.0191 34.0737 43.0198C33.9763 43.0191 33.8792 43.0306 33.7847 43.0542Z" fill="#42A5F5"/>
<path d="M34.6313 43.644C34.6776 43.6127 34.7221 43.579 34.7647 43.5428C34.7221 43.579 34.6776 43.6127 34.6313 43.644Z" fill="#42A5F5"/>
<path d="M32.3711 63.1381C32.4475 63.2401 32.5468 63.3226 32.6611 63.3788C32.5468 63.3226 32.4475 63.2401 32.3711 63.1381Z" fill="#42A5F5"/>
<path d="M35.2761 46.4988C35.2546 46.5003 35.233 46.5003 35.2114 46.4988C35.233 46.5003 35.2546 46.5003 35.2761 46.4988Z" fill="#42A5F5"/>
<path d="M36.042 46.341C36.0352 46.3265 36.0271 46.3126 36.0178 46.2995C36.0124 46.2925 36.005 46.2872 35.9966 46.2844C36.005 46.2872 36.0124 46.2925 36.0178 46.2995C36.0271 46.3126 36.0352 46.3265 36.042 46.341Z" fill="#42A5F5"/>
<path d="M37.1051 47.5074L36.6494 47.4124L37.1051 47.5074Z" fill="#42A5F5"/>
<path d="M33.3228 63.6064C33.351 63.6176 33.3793 63.6287 33.4066 63.6419C33.4621 63.668 33.5204 63.6877 33.5804 63.7005C33.5204 63.6877 33.4621 63.668 33.4066 63.6419C33.3793 63.6287 33.347 63.6176 33.3228 63.6064Z" fill="#42A5F5"/>
<path d="M34.3403 46.1822C34.2332 46.1265 34.117 46.0608 33.9785 45.994C34.2736 45.4538 34.5747 44.9025 34.9274 44.2591C34.5747 44.9025 34.2736 45.4538 33.9785 45.994C34.117 46.0598 34.2332 46.1265 34.3403 46.1822Z" fill="#42A5F5"/>
<path d="M34.9639 46.427C34.8629 46.3886 34.7568 46.343 34.6537 46.3137C34.5745 46.29 34.4974 46.2595 34.4233 46.2227C34.4974 46.2595 34.5745 46.29 34.6537 46.3137C34.7538 46.343 34.8568 46.3886 34.9639 46.427Z" fill="#42A5F5"/>
<path d="M31.3491 60.9681C31.4092 61.0185 31.4589 61.08 31.4956 61.1492C31.6886 61.5448 31.8554 61.9585 32.0262 62.3632C31.8554 61.9585 31.6886 61.5478 31.4956 61.1492C31.4589 61.08 31.4092 61.0185 31.3491 60.9681Z" fill="#42A5F5"/>
<path d="M34.0645 43.1574C34.0778 43.172 34.092 43.1858 34.1069 43.1989C34.092 43.1858 34.0778 43.172 34.0645 43.1574Z" fill="#42A5F5"/>
<path d="M34.1333 43.9404C34.1535 43.903 34.1778 43.8656 34.203 43.8281C34.1778 43.8656 34.1535 43.903 34.1333 43.9404Z" fill="#42A5F5"/>
<mask id="path-163-inside-1_125_7852" fill="white">
<path d="M63.9441 44.687C63.7562 43.7684 63.3479 42.9753 62.3112 42.7872C61.0329 42.5545 59.7515 42.4159 58.4712 42.8195C58.2348 42.8944 57.8195 42.8843 57.6911 42.7366C56.9666 41.8969 56.2906 41.0168 55.6348 40.1175C55.5276 39.9708 55.5408 39.6562 55.6186 39.47C55.7143 39.2372 55.8588 39.0277 56.0424 38.8556C56.2259 38.6835 56.4443 38.5529 56.6826 38.4726C57.3183 38.2338 58.0559 38.0224 58.4925 37.5621C58.9977 37.0229 59.2716 36.2389 59.5515 35.5247C59.6525 35.2556 59.5959 34.8257 59.4444 34.5677C58.7481 33.3811 57.1576 32.766 55.8217 33.1039C55.5286 33.1777 55.2295 33.2364 54.9436 33.3325C54.4909 33.4863 54.2362 33.3214 54.119 32.8813C53.9048 32.0882 53.3854 31.5743 52.6376 31.2718C52.5641 31.2318 52.4939 31.1862 52.4274 31.1353C52.5871 30.9329 52.7306 30.7599 52.8741 30.5779C53.1196 30.2602 53.4935 29.9709 53.5814 29.6148C53.9492 28.1489 54.7758 26.9077 55.4246 25.5804C55.7358 24.9451 56.1248 24.3493 56.4351 23.7119C56.9676 22.5992 56.7817 21.8192 55.8581 21.0109C55.3296 20.5486 54.7041 20.3533 54.025 20.238C53.7522 20.1925 53.4864 20.0155 53.25 19.8516C52.6841 19.4591 52.5265 18.8835 52.5608 18.2208C52.58 17.8688 52.5295 17.5127 52.5275 17.1596C52.5214 16.1632 52.1394 15.3842 51.3149 14.7894C50.847 14.4515 50.4569 14.0044 49.9466 13.5279C50.4519 13.099 50.851 12.6974 51.3108 12.3757C51.7938 12.0368 52.1334 11.6331 52.0303 11.0363C51.8676 10.0965 52.0727 9.19409 52.194 8.27857C52.234 8.06583 52.2187 7.84635 52.1495 7.64125C51.8373 6.93311 51.4654 6.27555 50.7207 5.88405C50.1275 5.57247 49.6091 5.12736 49.0331 4.77632C48.1762 4.25331 47.4578 3.5826 46.7787 2.84816C46.1534 2.16205 45.4862 1.51539 44.7809 0.91191C43.8715 0.144086 42.2901 0.62562 41.8242 1.72121C41.4554 2.58615 41.0158 3.42277 40.5853 4.25837C40.3772 4.66302 40.0649 4.8006 39.5809 4.63975C38.8847 4.40809 38.1581 4.26646 37.4457 4.08032C36.221 3.75761 35.1963 4.17036 34.3131 4.98168C33.6058 5.62508 32.7347 5.62609 31.9102 5.56944C31.0856 5.51279 30.4278 5.01507 30.1923 4.12787C30.152 4.03957 30.0871 3.96477 30.0054 3.91239C29.5375 3.53708 29.0323 3.20426 28.6038 2.78747C27.8965 2.10259 27.0577 1.89015 26.1382 2.05505C25.066 2.24726 24.1323 2.81174 24.5214 4.3737C24.535 4.50823 24.535 4.64381 24.5214 4.77835C24.1606 4.71563 23.8342 4.60637 23.5109 4.61649C23.0541 4.63065 22.5206 4.60536 22.1619 4.8269C21.506 5.23155 20.921 5.18401 20.3096 4.86332C19.4565 4.40233 18.4601 4.28335 17.5226 4.5305C16.5763 4.77946 15.584 4.79681 14.6296 4.58108C13.9873 4.44946 13.3295 4.41062 12.6763 4.46575C11.6577 4.52847 11.1039 5.11522 11.0595 6.12482C11.0299 6.93929 11.2623 7.74174 11.7223 8.41413C11.8603 8.61037 11.9312 8.84599 11.9244 9.08585C11.8683 9.48019 11.9074 9.88225 12.0384 10.2584C12.1694 10.6345 12.3884 10.9737 12.6773 11.2477C13.0057 11.5755 13.3786 11.8597 13.7676 12.1946C12.6126 13.0474 11.6243 13.973 12.555 15.5734C12.2703 15.7227 11.9934 15.8865 11.7254 16.064C11.2676 16.4029 10.7644 16.7115 10.3956 17.1333C9.10818 18.6012 9.68821 20.4545 11.597 20.7985C13.0411 21.0595 14.2506 21.7271 15.4167 22.5405C15.5553 22.6299 15.6674 22.755 15.7411 22.9026C16.1453 23.8789 15.9564 24.7549 15.1965 25.4742C13.6807 26.9087 12.1356 28.3169 10.6148 29.7483C9.89233 30.4302 9.09908 30.4868 8.24218 30.0791C7.75612 29.8485 7.2923 29.5733 6.81231 29.3295C5.53403 28.68 4.72563 28.936 3.44128 29.9587C2.54294 30.6729 2.96735 31.6542 3.26545 32.5323C3.3769 32.9046 3.55009 33.2555 3.77777 33.5702C4.47502 34.4514 5.16519 35.3487 5.96046 36.1357C6.686 36.854 7.54291 37.4397 8.34828 38.075C8.70296 38.3552 8.75248 38.6365 8.49379 39.0259C7.88749 39.9496 7.31251 40.8924 6.72945 41.8312C6.63729 41.9722 6.56296 42.1241 6.50815 42.2834C6.33536 42.8276 6.4738 43.0563 7.02351 43.1857C7.08749 43.2058 7.14862 43.234 7.2054 43.2697C7.32666 43.7998 6.97399 44.2702 7.26502 44.7983C7.94913 46.0385 7.85212 46.5818 6.86082 47.7502C6.47683 47.5378 6.0989 47.2828 5.6856 47.1098C5.13387 46.8782 4.569 46.6263 3.98594 46.5393C3.34427 46.4442 2.91379 46.8306 2.82992 47.4761C2.76323 47.9879 2.79455 48.514 2.79152 49.034C2.78647 50.1073 2.87034 51.1887 2.76121 52.2499C2.64904 53.3334 2.28223 54.3885 2.15491 55.4709C2.07609 56.1386 1.79517 56.5655 1.26566 56.8933C1.10803 56.9945 0.949376 57.0855 0.792748 57.1856C-0.257164 57.8594 -0.271311 59.0804 0.792748 59.7258C1.24577 59.9853 1.72553 60.1949 2.22362 60.351C2.40752 60.4043 2.57827 60.4955 2.72496 60.6186C2.87164 60.7418 2.99103 60.8942 3.07547 61.0662C3.4534 61.7997 3.88388 62.5088 4.28808 63.2271C4.68622 63.9302 5.25816 64.3813 6.08374 64.4623C6.54251 64.5068 6.69004 64.6899 6.58899 65.1947C6.34647 66.5482 6.62133 66.9488 7.94004 67.4051C8.28967 67.5255 8.64739 67.6236 8.995 67.7521C10.4653 68.2963 12.0467 68.6494 13.037 70.0495C13.1049 70.1248 13.1828 70.1905 13.2684 70.2447C13.6625 70.5583 14.091 70.6787 14.5902 70.5209C15.1348 70.3489 15.6805 70.1426 16.2413 70.0667C16.591 70.0191 16.981 70.1537 17.3286 70.2781C17.4226 70.3115 17.5034 70.6292 17.4559 70.7718C17.2811 71.3218 17.0673 71.8586 16.8163 72.3782C16.5492 72.9224 16.2386 73.4441 15.8876 73.9382C14.6457 75.6519 15.4016 77.7186 16.9588 78.5765C17.8773 79.0823 18.4745 78.9741 19.0636 78.103C19.5457 77.3949 19.9883 76.6483 20.5349 75.9898C20.83 75.6337 21.2938 75.4071 21.7041 75.1602C21.983 74.9923 22.2275 75.0843 22.4519 75.3453C22.9996 75.9837 23.5816 76.5947 24.1424 77.2229C24.5466 77.6701 25.0408 77.8936 25.6248 78.014C26.4767 78.19 27.3973 78.274 28.144 78.6695C30.0337 79.6711 31.9678 80.4672 34.0716 80.8951C35.165 81.1197 36.0603 81.0165 36.9253 80.2619C37.5959 79.6779 38.3297 79.1709 39.113 78.7505C40.267 78.1354 41.1724 77.3342 41.7787 76.1567C42.0182 75.6925 42.3715 75.2967 42.8054 75.0065C43.2025 74.7525 43.3885 74.4197 43.6138 74.0596C44.4889 72.6635 45.0023 70.9347 46.9 70.4622C47.1417 70.3814 47.3571 70.2367 47.5235 70.0434C47.7377 69.8158 48.0014 69.5518 48.0519 69.2685C48.2217 68.3277 48.3268 67.3727 48.4127 66.4198C48.4582 65.919 48.1783 65.5589 47.7367 65.3262C47.573 65.2402 47.3759 65.1745 47.2668 65.0399C47.1576 64.9054 47.0253 64.6595 47.0647 64.5068C47.3608 63.3748 47.962 62.4451 48.9846 61.8229C49.3302 61.6125 49.7021 61.4345 50.0133 61.1816C50.7419 60.5908 51.4907 60.0121 52.1354 59.3374C52.6406 58.8093 52.6113 58.0546 52.5396 57.3637C52.483 56.8053 51.9585 56.6738 51.5473 56.4532C51.52 56.4401 51.5058 56.4026 51.425 56.2974C51.5936 56.1586 51.7723 56.0325 51.9596 55.9201C52.6548 55.561 53.351 55.2008 53.6774 54.43C54.0816 53.479 54.7283 52.8205 55.7035 52.4401C56.5828 52.1132 57.2994 51.455 57.7002 50.606C57.7911 50.4332 57.9466 50.3034 58.1327 50.2449C58.3375 50.1965 58.5289 50.1031 58.6931 49.9713C58.8572 49.8395 58.99 49.6727 59.0816 49.4831C59.3686 48.9399 59.8203 48.602 60.3639 48.3248C61.2461 47.8807 62.106 47.3749 62.9619 46.8691C63.8178 46.3633 64.1412 45.6551 63.9441 44.687ZM42.3194 49.2211C42.3121 49.2671 42.3013 49.3124 42.287 49.3567C42.2338 49.5219 42.1191 49.6603 41.9667 49.7431C41.9303 49.7625 41.8897 49.7729 41.8485 49.7735C41.8249 49.7749 41.8013 49.7749 41.7777 49.7735L41.7009 49.7654C41.5938 49.7502 41.4716 49.7229 41.3412 49.7128C41.2583 49.9586 41.1937 50.2186 41.2715 50.4543C41.3112 50.5685 41.381 50.6699 41.4736 50.7477C41.5632 50.8236 41.6636 50.8857 41.7717 50.9318L41.5635 51.0259L41.221 51.1796L41.0674 51.2484C40.9848 51.2836 40.9091 51.3332 40.844 51.3951C40.7911 51.4447 40.75 51.5055 40.7238 51.5731C40.644 51.7886 40.7117 52.0466 40.7551 52.2873C40.7836 52.4204 40.788 52.5574 40.7682 52.692C40.7599 52.736 40.747 52.7791 40.7298 52.8205C40.7131 52.8598 40.691 52.8965 40.6642 52.9297C40.6218 52.9817 40.5696 53.0246 40.5106 53.0562C40.4108 53.1069 40.3026 53.1388 40.1912 53.1503C40.1095 53.153 40.0302 53.1786 39.9623 53.2242C39.8944 53.2698 39.8407 53.3335 39.8073 53.4082C39.78 53.4662 39.759 53.5269 39.7446 53.5893C39.7356 53.6237 39.7244 53.6575 39.7113 53.6905C39.63 53.8534 39.5325 54.0076 39.4202 54.1508C39.3785 54.211 39.34 54.2735 39.305 54.3379C39.2383 54.4674 39.2383 54.6313 39.1888 54.8761L35.8633 55.2059C35.8332 55.2564 35.8218 55.3158 35.8309 55.3738C35.8336 55.3876 35.8373 55.4011 35.842 55.4143C35.8926 55.5579 36.0734 55.6834 36.2766 55.7896C36.3212 55.8131 36.3641 55.8398 36.4049 55.8695C36.4926 55.931 36.561 56.0163 36.6019 56.1153C36.617 56.1546 36.6278 56.1952 36.6343 56.2367C36.6382 56.2585 36.6405 56.2804 36.6413 56.3025C36.6452 56.4659 36.621 56.6288 36.5696 56.784L35.4116 56.0708L34.8548 55.7279L34.3111 55.393C34.2889 55.4052 34.2687 55.4143 34.2525 55.4214C34.228 55.4311 34.204 55.4422 34.1808 55.4548C34.1743 55.4582 34.169 55.4635 34.1656 55.4699C33.7614 56.3025 33.3198 57.1239 32.9581 57.9767C32.9466 58.0024 32.9365 58.0277 32.9278 58.0526C32.9086 58.1032 32.8914 58.1538 32.8762 58.2064C32.7925 58.4703 32.7967 58.7544 32.8883 59.0157C32.8974 59.043 32.9086 59.0703 32.9207 59.0986C32.946 59.1563 32.9754 59.2121 33.0086 59.2655C33.0642 59.3546 33.1177 59.4446 33.1703 59.5346C33.2228 59.6247 33.2713 59.7157 33.3269 59.8078C33.4279 59.9899 33.529 60.175 33.6301 60.3601C33.7786 60.6383 33.9231 60.9175 34.0686 61.1978C34.1171 61.2908 34.1697 61.3839 34.2151 61.476C34.2232 61.4911 34.2303 61.5063 34.2374 61.5215C34.2606 61.565 34.2818 61.6095 34.3041 61.651C34.3372 61.7332 34.3926 61.8046 34.4639 61.8572C34.5353 61.9097 34.6199 61.9413 34.7083 61.9484C34.7285 61.9484 34.7507 61.9484 34.7729 61.9484C34.7995 61.95 34.8246 61.9611 34.8437 61.9797C34.8609 61.9942 34.8765 62.0104 34.8901 62.0283C34.9063 62.0485 34.9225 62.0708 34.9387 62.0951C35.0104 62.2053 35.0872 62.3571 35.1731 62.4765C35.072 62.5382 34.9912 62.6009 34.9104 62.6545C34.872 62.6813 34.8322 62.7059 34.7911 62.7283C34.7528 62.7503 34.7126 62.7686 34.6709 62.783L34.4991 62.8416C34.4799 62.8477 34.4617 62.8548 34.4445 62.8619C34.41 62.8748 34.3763 62.8896 34.3435 62.9064C34.311 62.9224 34.2799 62.941 34.2505 62.962C34.2219 62.9832 34.1955 63.0073 34.1717 63.0339C34.1592 63.0475 34.1477 63.062 34.1373 63.0774C34.0755 63.1725 34.0406 63.2826 34.0363 63.396C34.0329 63.4794 34.0004 63.5589 33.9443 63.6206C33.914 63.653 33.8767 63.6779 33.8352 63.6934C33.7554 63.7206 33.6698 63.7251 33.5876 63.7066C33.5277 63.6936 33.4694 63.6739 33.4138 63.6479C33.3865 63.6348 33.3592 63.6236 33.3309 63.6125C33.3026 63.6014 33.2733 63.5913 33.244 63.5822C33.1571 63.5538 33.0682 63.5306 32.9803 63.5053C32.8923 63.4805 32.8062 63.4494 32.7226 63.4122L32.6681 63.3849C32.5542 63.3285 32.4551 63.246 32.379 63.1441C32.3683 63.1281 32.3588 63.1111 32.3508 63.0935C32.3134 63.0136 32.278 62.9337 32.2416 62.8528C32.1709 62.6909 32.1018 62.5287 32.0345 62.3662C31.8637 61.9615 31.6959 61.5508 31.5029 61.1522C31.4667 61.0829 31.4173 61.0214 31.3574 60.9712C31.2543 60.8797 31.1305 60.8148 30.9967 60.782C30.8276 60.7493 30.6611 60.7044 30.4985 60.6474C30.4212 60.6197 30.3462 60.5858 30.2742 60.5463C30.1529 60.4802 30.0455 60.3912 29.9579 60.2843C29.9206 60.2383 29.8869 60.1896 29.8568 60.1386C29.8254 60.0832 29.7994 60.0249 29.779 59.9646C29.7568 59.9029 29.7386 59.8381 29.7204 59.7693C29.685 59.6318 29.6527 59.479 29.6022 59.309L28.2491 59.0794C28.2158 59.2342 28.1834 59.3829 28.1481 59.5266C28.1127 59.6702 28.0864 59.8128 28.0561 59.9535L27.9066 59.9717C27.8944 59.9339 27.8813 59.8965 27.8672 59.8594C27.8399 59.7845 27.8116 59.7096 27.7914 59.6338C27.7809 59.5959 27.7728 59.5574 27.7671 59.5185C27.7601 59.4716 27.7475 59.4258 27.7297 59.3819C27.7093 59.3342 27.6846 59.2885 27.656 59.2453C27.6258 59.2001 27.592 59.1575 27.5549 59.1179C27.5182 59.0773 27.4783 59.0398 27.4357 59.0056C27.3944 58.973 27.3504 58.9439 27.3043 58.9186C27.2243 58.871 27.1326 58.8465 27.0395 58.8477C26.9982 58.8491 26.9577 58.8602 26.9213 58.8801C26.8991 58.8923 26.8779 58.9024 26.8577 58.9115C26.7656 58.9527 26.6655 58.9731 26.5646 58.9712C26.5101 58.9691 26.4559 58.9613 26.4029 58.9479L26.3514 58.9337C26.316 58.9236 26.2817 58.9115 26.2503 58.8983L26.1988 58.8791L26.0978 58.8366L26.0462 58.8164C25.8088 58.7213 25.5723 58.6252 25.3389 58.5281C24.6315 58.2367 23.9242 57.9393 23.2168 57.648C23.1705 57.6298 23.1229 57.6153 23.0743 57.6045C23.0258 57.5923 22.9733 57.5822 22.9288 57.569C22.9005 57.6955 22.8783 57.7896 22.8551 57.8574C22.8457 57.8858 22.8328 57.913 22.8167 57.9383C22.8081 57.9524 22.7966 57.9646 22.783 57.974C22.7695 57.9834 22.7541 57.9898 22.7378 57.9929C22.7257 57.994 22.7136 57.994 22.7015 57.9929C22.5704 57.9686 22.4432 57.9264 22.3235 57.8675C21.9406 57.7015 21.6056 57.4416 21.3494 57.1118C21.1817 56.9095 21.0271 56.7001 20.8623 56.4886C20.7613 56.3612 20.6602 56.2337 20.5531 56.1113C20.6574 56.0576 20.7586 55.9981 20.8563 55.9333C20.9139 55.897 20.9588 55.8436 20.9846 55.7805C20.999 55.7327 20.9957 55.6814 20.9755 55.6358C20.9272 55.5359 20.8583 55.4473 20.7734 55.3759C20.5168 55.1361 20.3561 54.7962 20.1742 54.4745C20.1126 54.3733 20.0499 54.2631 19.9792 54.1649C19.9246 54.088 19.8781 54.0203 19.8316 53.9626C19.677 53.7603 19.577 53.6713 19.4446 53.6753C19.3122 53.6794 19.1485 53.7765 18.8676 53.9505L18.2906 53.6672L17.7338 53.391C17.7581 53.3576 17.7813 53.3233 17.8056 53.2899C17.7702 53.3081 17.7358 53.3283 17.7045 53.3496C17.6257 53.4069 17.5384 53.4516 17.4458 53.4821C17.4282 53.4863 17.4103 53.489 17.3923 53.4902C17.171 53.5003 16.9487 53.5053 16.7264 53.5023C16.504 53.4993 16.2817 53.4881 16.0614 53.4689C16.048 53.4678 16.035 53.464 16.023 53.4578C15.93 53.3966 15.8561 53.3103 15.8098 53.2089C15.8011 53.1921 15.793 53.1759 15.7856 53.1604C15.638 52.8407 15.536 52.4978 15.3814 52.1832C15.3733 52.167 15.3642 52.1508 15.3541 52.1346C15.3097 52.0677 15.254 52.0092 15.1894 51.9616C15.1739 51.9498 15.1577 51.939 15.1409 51.9292C15.1093 51.9095 15.0754 51.8938 15.0398 51.8827C14.6599 51.7664 14.6356 51.4942 14.8377 51.2757C15.1308 50.9611 15.0792 50.6354 14.9984 50.3207C14.9832 50.2641 14.9671 50.2074 14.9529 50.1508C14.9294 50.069 14.9109 49.9859 14.8973 49.9019C14.8667 49.7496 14.801 49.6065 14.7054 49.4841C14.6771 49.445 14.6478 49.4056 14.6174 49.3658C14.5558 49.2859 14.4891 49.2039 14.4244 49.1189C14.3759 49.0552 14.3234 48.9894 14.282 48.9217L14.4153 48.9035L14.674 48.8681L14.8125 48.8488C14.8125 48.6151 14.8994 48.4958 15.0328 48.4331C15.0675 48.4175 15.1037 48.4053 15.1409 48.3966C15.2673 48.3712 15.3959 48.3586 15.5249 48.3592C15.7724 48.3511 16.021 48.3461 16.2686 48.341C16.7658 48.3309 17.2619 48.3218 17.7571 48.2945C18.0043 48.2816 18.2512 48.2624 18.4978 48.2368C18.6912 48.2144 18.8819 48.172 19.0667 48.1103C19.1293 48.0901 19.192 48.0689 19.2536 48.0456C19.5022 47.9546 19.7478 47.8433 19.9883 47.7421C20.1419 47.6753 20.2187 47.4305 20.3733 47.2059C20.0863 47.1655 19.9105 47.0825 19.8134 46.951C19.789 46.9184 19.7695 46.8822 19.7558 46.8438C19.7122 46.7037 19.7042 46.5548 19.7326 46.4108C19.7478 46.3097 19.67 46.1589 19.5659 46.0395C19.5095 45.972 19.4409 45.9158 19.3638 45.8736C18.9212 45.6521 18.4715 45.4447 18.0218 45.2393C17.5721 45.034 17.1215 44.8276 16.6768 44.6111C16.5965 44.5662 16.5274 44.5036 16.4747 44.428C16.4202 44.3633 16.3892 44.282 16.3868 44.1974C16.3949 44.1053 16.405 44.0143 16.4161 43.9232C16.4707 43.467 16.5495 43.0128 16.6101 42.5585C16.6334 42.3764 16.6546 42.1944 16.6708 42.0113C16.7435 41.1372 17.3195 40.6061 17.8884 40.0629C17.9561 39.9957 18.0291 39.9342 18.1067 39.8787C18.1354 39.8591 18.1655 39.8415 18.1966 39.8261C18.2429 39.8009 18.2938 39.7854 18.3462 39.7806C18.4845 39.7813 18.6198 39.74 18.7342 39.6623C18.7793 39.6283 18.818 39.5865 18.8484 39.5388C18.869 39.5068 18.8866 39.4729 18.901 39.4377C18.908 39.4185 18.9151 39.3992 18.9212 39.38C18.946 39.2918 18.9619 39.2013 18.9687 39.1099C18.9838 38.9217 18.9838 38.7214 18.9889 38.5242C18.9889 38.423 18.997 38.3218 19.0061 38.2318C19.0061 38.2005 19.0121 38.1691 19.0162 38.1377C19.0332 37.9616 19.0895 37.7915 19.1809 37.64C19.21 37.5963 19.2439 37.5559 19.2819 37.5196C19.3437 37.4632 19.4115 37.4137 19.484 37.3719C19.7599 37.2111 20.1297 37.1109 20.4228 36.9582C20.4749 36.93 20.5252 36.8986 20.5733 36.8641L20.6542 36.8054L20.7471 36.7407C20.7209 36.6982 20.6956 36.6567 20.6693 36.6162L20.5178 36.3724L20.4379 36.245L20.4864 36.1661C20.5344 36.0813 20.5895 36.0007 20.6512 35.9253C20.7271 35.8259 20.8288 35.7493 20.9452 35.7038C20.9588 35.7004 20.9727 35.6981 20.9866 35.6967C21.0004 35.6952 21.0143 35.6952 21.0281 35.6967C21.1291 35.7058 21.2221 35.7796 21.3191 35.9496C21.3601 36.0328 21.4163 36.1076 21.4848 36.1701C21.503 36.1847 21.5235 36.1959 21.5454 36.2035C21.5677 36.2086 21.5909 36.2086 21.6131 36.2035C21.6839 36.1914 21.7647 36.1276 21.8627 35.9911C21.9215 35.9175 21.9966 35.8586 22.082 35.8191C22.172 35.7746 22.273 35.7371 22.373 35.6997C22.4387 35.6744 22.5044 35.6491 22.565 35.6208C23.0551 35.3902 23.5402 35.1484 24.0343 34.9278C24.199 34.854 24.3647 34.7822 24.5325 34.7144C24.5759 34.6972 24.6164 34.679 24.6548 34.6598C24.7981 34.5898 24.922 34.4856 25.0155 34.3563C25.0875 34.2528 25.143 34.1388 25.1802 34.0184C25.1891 33.9918 25.1996 33.9658 25.2115 33.9405C25.2671 33.8312 25.3433 33.7336 25.4359 33.6532C25.4796 33.6136 25.5282 33.5796 25.5804 33.552C25.6039 33.5395 25.6286 33.5293 25.6541 33.5217C25.6618 33.5202 25.6697 33.5202 25.6774 33.5217C25.7956 33.5217 25.9805 33.7938 26.1554 33.8808C26.2049 33.9061 26.2564 33.9314 26.311 33.9547C26.3646 33.98 26.4196 34.0022 26.4757 34.0214C26.5556 34.049 26.6389 34.0654 26.7233 34.07C26.7498 34.072 26.7765 34.072 26.8031 34.07L27.0406 34.0447C27.3568 34.0093 27.6762 33.9607 28.0137 33.9071L28.5341 33.8252L28.8079 33.7827C28.7766 34.8307 28.7564 35.8343 28.7129 36.8358C28.7049 37.0179 28.6958 37.1989 28.6846 37.381C28.6624 37.7462 28.6361 38.1145 28.6089 38.4938C28.5961 38.6833 28.5829 38.8749 28.5695 39.0684H29.2869L29.3344 39.1858L28.7817 39.5024L28.6806 39.5611C28.7726 39.6916 28.8665 39.818 28.9565 39.9445C29.0019 40.0072 29.0464 40.0709 29.0899 40.1347C29.1333 40.1984 29.1758 40.2632 29.2162 40.3289C29.2364 40.3633 29.2576 40.3997 29.2768 40.4372C29.2869 40.4564 29.296 40.4756 29.3051 40.4948C29.3502 40.5874 29.3756 40.6883 29.3799 40.7912C29.3734 40.8823 29.3869 40.9736 29.4194 41.0588C29.4519 41.1441 29.5025 41.2213 29.5678 41.2849C29.6285 41.3403 29.6987 41.3841 29.775 41.4144C29.8581 41.4475 29.9445 41.4716 30.0327 41.4862C30.9084 41.6407 31.7842 41.7924 32.66 41.9414C33.5357 42.0905 34.4115 42.2385 35.2873 42.3856C35.4065 42.4048 35.5258 42.424 35.644 42.4412C35.7622 42.4584 35.8804 42.4756 35.9956 42.4918L36.3372 42.5393L36.6616 42.5838L36.2846 42.9217L35.8966 43.2697L35.7248 42.9268C35.7188 42.9683 35.7147 43.0077 35.7097 43.0451L35.6723 43.3426C35.6571 43.4589 35.645 43.5601 35.6319 43.6622C35.6116 43.647 35.5904 43.6309 35.5702 43.6137C35.5288 43.5793 35.4884 43.5429 35.4479 43.5064C35.4075 43.47 35.3661 43.4356 35.3257 43.4053C35.2725 43.363 35.2083 43.337 35.1408 43.3304C35.0397 43.3304 34.9386 43.4043 34.8275 43.4923L34.7628 43.5449C34.7184 43.5813 34.6739 43.6157 34.6294 43.646C34.6072 43.2717 34.4415 43.0279 34.0716 43.0219C33.9742 43.021 33.8771 43.0326 33.7826 43.0563V43.9667L34.9245 44.2652C34.5728 44.9086 34.2717 45.4599 33.9756 46.0001C34.1141 46.0669 34.2303 46.1326 34.3384 46.1883L34.4172 46.2287C34.4916 46.2656 34.5691 46.296 34.6486 46.3198C34.7497 46.3491 34.8507 46.3946 34.9579 46.4331C35.0389 46.465 35.1233 46.4874 35.2095 46.4998C35.2518 46.5046 35.2945 46.5046 35.3368 46.4998C35.4605 46.4858 35.576 46.431 35.6652 46.344C35.7051 46.3147 35.7516 46.2956 35.8006 46.2884C35.819 46.2844 35.8375 46.2814 35.8562 46.2793H35.9097C35.9256 46.2782 35.9414 46.2782 35.9572 46.2793C35.9696 46.2806 35.9818 46.2833 35.9936 46.2874C36.0022 46.2905 36.0098 46.2957 36.0158 46.3026C36.0244 46.3159 36.0322 46.3298 36.0391 46.344C36.0752 46.4244 36.0928 46.5119 36.0906 46.6C36.0902 46.6338 36.0879 46.6676 36.0835 46.7011C36.0699 46.792 36.0479 46.8814 36.0179 46.9682L35.9704 47.1088C35.9532 47.1574 35.937 47.21 35.9198 47.2616L36.6464 47.4123L37.1021 47.5074C37.2406 47.1098 36.5443 46.6516 37.2578 46.2662L38.1227 47.7795H38.1521C38.1702 47.7814 38.1885 47.7814 38.2066 47.7795C38.2121 47.7791 38.2171 47.7766 38.2208 47.7725L38.2814 47.6855C38.5047 47.3749 38.7533 47.1736 39.0777 47.2515C39.2197 47.2904 39.3517 47.3594 39.4647 47.4538C39.5011 47.4791 39.5437 47.4942 39.588 47.4973C39.6668 47.5064 39.7608 47.4973 39.8436 47.5104C39.8497 47.5297 39.8739 47.5631 39.8679 47.5883C39.8174 47.7967 39.7668 48.0051 39.7082 48.2125C39.8851 48.2449 40.0609 48.2914 40.2387 48.3137C40.2974 48.3228 40.357 48.3299 40.4156 48.3339C40.5429 48.342 40.6702 48.3461 40.7986 48.3501C41.0532 48.3572 41.3089 48.3592 41.5625 48.3713C41.6898 48.3774 41.8171 48.3865 41.9435 48.3987C42.015 48.4164 42.082 48.4489 42.1403 48.494C42.1986 48.5391 42.2468 48.5959 42.282 48.6607C42.2899 48.6762 42.2954 48.693 42.2981 48.7102L42.3103 48.7821C42.3173 48.8316 42.3224 48.8832 42.3264 48.9287C42.3305 48.9743 42.3264 49.0299 42.3264 49.0744C42.3267 49.1235 42.3236 49.1725 42.3173 49.2211H42.3194Z"/>
</mask>
<path d="M63.9441 44.687C63.7562 43.7684 63.3479 42.9753 62.3112 42.7872C61.0329 42.5545 59.7515 42.4159 58.4712 42.8195C58.2348 42.8944 57.8195 42.8843 57.6911 42.7366C56.9666 41.8969 56.2906 41.0168 55.6348 40.1175C55.5276 39.9708 55.5408 39.6562 55.6186 39.47C55.7143 39.2372 55.8588 39.0277 56.0424 38.8556C56.2259 38.6835 56.4443 38.5529 56.6826 38.4726C57.3183 38.2338 58.0559 38.0224 58.4925 37.5621C58.9977 37.0229 59.2716 36.2389 59.5515 35.5247C59.6525 35.2556 59.5959 34.8257 59.4444 34.5677C58.7481 33.3811 57.1576 32.766 55.8217 33.1039C55.5286 33.1777 55.2295 33.2364 54.9436 33.3325C54.4909 33.4863 54.2362 33.3214 54.119 32.8813C53.9048 32.0882 53.3854 31.5743 52.6376 31.2718C52.5641 31.2318 52.4939 31.1862 52.4274 31.1353C52.5871 30.9329 52.7306 30.7599 52.8741 30.5779C53.1196 30.2602 53.4935 29.9709 53.5814 29.6148C53.9492 28.1489 54.7758 26.9077 55.4246 25.5804C55.7358 24.9451 56.1248 24.3493 56.4351 23.7119C56.9676 22.5992 56.7817 21.8192 55.8581 21.0109C55.3296 20.5486 54.7041 20.3533 54.025 20.238C53.7522 20.1925 53.4864 20.0155 53.25 19.8516C52.6841 19.4591 52.5265 18.8835 52.5608 18.2208C52.58 17.8688 52.5295 17.5127 52.5275 17.1596C52.5214 16.1632 52.1394 15.3842 51.3149 14.7894C50.847 14.4515 50.4569 14.0044 49.9466 13.5279C50.4519 13.099 50.851 12.6974 51.3108 12.3757C51.7938 12.0368 52.1334 11.6331 52.0303 11.0363C51.8676 10.0965 52.0727 9.19409 52.194 8.27857C52.234 8.06583 52.2187 7.84635 52.1495 7.64125C51.8373 6.93311 51.4654 6.27555 50.7207 5.88405C50.1275 5.57247 49.6091 5.12736 49.0331 4.77632C48.1762 4.25331 47.4578 3.5826 46.7787 2.84816C46.1534 2.16205 45.4862 1.51539 44.7809 0.91191C43.8715 0.144086 42.2901 0.62562 41.8242 1.72121C41.4554 2.58615 41.0158 3.42277 40.5853 4.25837C40.3772 4.66302 40.0649 4.8006 39.5809 4.63975C38.8847 4.40809 38.1581 4.26646 37.4457 4.08032C36.221 3.75761 35.1963 4.17036 34.3131 4.98168C33.6058 5.62508 32.7347 5.62609 31.9102 5.56944C31.0856 5.51279 30.4278 5.01507 30.1923 4.12787C30.152 4.03957 30.0871 3.96477 30.0054 3.91239C29.5375 3.53708 29.0323 3.20426 28.6038 2.78747C27.8965 2.10259 27.0577 1.89015 26.1382 2.05505C25.066 2.24726 24.1323 2.81174 24.5214 4.3737C24.535 4.50823 24.535 4.64381 24.5214 4.77835C24.1606 4.71563 23.8342 4.60637 23.5109 4.61649C23.0541 4.63065 22.5206 4.60536 22.1619 4.8269C21.506 5.23155 20.921 5.18401 20.3096 4.86332C19.4565 4.40233 18.4601 4.28335 17.5226 4.5305C16.5763 4.77946 15.584 4.79681 14.6296 4.58108C13.9873 4.44946 13.3295 4.41062 12.6763 4.46575C11.6577 4.52847 11.1039 5.11522 11.0595 6.12482C11.0299 6.93929 11.2623 7.74174 11.7223 8.41413C11.8603 8.61037 11.9312 8.84599 11.9244 9.08585C11.8683 9.48019 11.9074 9.88225 12.0384 10.2584C12.1694 10.6345 12.3884 10.9737 12.6773 11.2477C13.0057 11.5755 13.3786 11.8597 13.7676 12.1946C12.6126 13.0474 11.6243 13.973 12.555 15.5734C12.2703 15.7227 11.9934 15.8865 11.7254 16.064C11.2676 16.4029 10.7644 16.7115 10.3956 17.1333C9.10818 18.6012 9.68821 20.4545 11.597 20.7985C13.0411 21.0595 14.2506 21.7271 15.4167 22.5405C15.5553 22.6299 15.6674 22.755 15.7411 22.9026C16.1453 23.8789 15.9564 24.7549 15.1965 25.4742C13.6807 26.9087 12.1356 28.3169 10.6148 29.7483C9.89233 30.4302 9.09908 30.4868 8.24218 30.0791C7.75612 29.8485 7.2923 29.5733 6.81231 29.3295C5.53403 28.68 4.72563 28.936 3.44128 29.9587C2.54294 30.6729 2.96735 31.6542 3.26545 32.5323C3.3769 32.9046 3.55009 33.2555 3.77777 33.5702C4.47502 34.4514 5.16519 35.3487 5.96046 36.1357C6.686 36.854 7.54291 37.4397 8.34828 38.075C8.70296 38.3552 8.75248 38.6365 8.49379 39.0259C7.88749 39.9496 7.31251 40.8924 6.72945 41.8312C6.63729 41.9722 6.56296 42.1241 6.50815 42.2834C6.33536 42.8276 6.4738 43.0563 7.02351 43.1857C7.08749 43.2058 7.14862 43.234 7.2054 43.2697C7.32666 43.7998 6.97399 44.2702 7.26502 44.7983C7.94913 46.0385 7.85212 46.5818 6.86082 47.7502C6.47683 47.5378 6.0989 47.2828 5.6856 47.1098C5.13387 46.8782 4.569 46.6263 3.98594 46.5393C3.34427 46.4442 2.91379 46.8306 2.82992 47.4761C2.76323 47.9879 2.79455 48.514 2.79152 49.034C2.78647 50.1073 2.87034 51.1887 2.76121 52.2499C2.64904 53.3334 2.28223 54.3885 2.15491 55.4709C2.07609 56.1386 1.79517 56.5655 1.26566 56.8933C1.10803 56.9945 0.949376 57.0855 0.792748 57.1856C-0.257164 57.8594 -0.271311 59.0804 0.792748 59.7258C1.24577 59.9853 1.72553 60.1949 2.22362 60.351C2.40752 60.4043 2.57827 60.4955 2.72496 60.6186C2.87164 60.7418 2.99103 60.8942 3.07547 61.0662C3.4534 61.7997 3.88388 62.5088 4.28808 63.2271C4.68622 63.9302 5.25816 64.3813 6.08374 64.4623C6.54251 64.5068 6.69004 64.6899 6.58899 65.1947C6.34647 66.5482 6.62133 66.9488 7.94004 67.4051C8.28967 67.5255 8.64739 67.6236 8.995 67.7521C10.4653 68.2963 12.0467 68.6494 13.037 70.0495C13.1049 70.1248 13.1828 70.1905 13.2684 70.2447C13.6625 70.5583 14.091 70.6787 14.5902 70.5209C15.1348 70.3489 15.6805 70.1426 16.2413 70.0667C16.591 70.0191 16.981 70.1537 17.3286 70.2781C17.4226 70.3115 17.5034 70.6292 17.4559 70.7718C17.2811 71.3218 17.0673 71.8586 16.8163 72.3782C16.5492 72.9224 16.2386 73.4441 15.8876 73.9382C14.6457 75.6519 15.4016 77.7186 16.9588 78.5765C17.8773 79.0823 18.4745 78.9741 19.0636 78.103C19.5457 77.3949 19.9883 76.6483 20.5349 75.9898C20.83 75.6337 21.2938 75.4071 21.7041 75.1602C21.983 74.9923 22.2275 75.0843 22.4519 75.3453C22.9996 75.9837 23.5816 76.5947 24.1424 77.2229C24.5466 77.6701 25.0408 77.8936 25.6248 78.014C26.4767 78.19 27.3973 78.274 28.144 78.6695C30.0337 79.6711 31.9678 80.4672 34.0716 80.8951C35.165 81.1197 36.0603 81.0165 36.9253 80.2619C37.5959 79.6779 38.3297 79.1709 39.113 78.7505C40.267 78.1354 41.1724 77.3342 41.7787 76.1567C42.0182 75.6925 42.3715 75.2967 42.8054 75.0065C43.2025 74.7525 43.3885 74.4197 43.6138 74.0596C44.4889 72.6635 45.0023 70.9347 46.9 70.4622C47.1417 70.3814 47.3571 70.2367 47.5235 70.0434C47.7377 69.8158 48.0014 69.5518 48.0519 69.2685C48.2217 68.3277 48.3268 67.3727 48.4127 66.4198C48.4582 65.919 48.1783 65.5589 47.7367 65.3262C47.573 65.2402 47.3759 65.1745 47.2668 65.0399C47.1576 64.9054 47.0253 64.6595 47.0647 64.5068C47.3608 63.3748 47.962 62.4451 48.9846 61.8229C49.3302 61.6125 49.7021 61.4345 50.0133 61.1816C50.7419 60.5908 51.4907 60.0121 52.1354 59.3374C52.6406 58.8093 52.6113 58.0546 52.5396 57.3637C52.483 56.8053 51.9585 56.6738 51.5473 56.4532C51.52 56.4401 51.5058 56.4026 51.425 56.2974C51.5936 56.1586 51.7723 56.0325 51.9596 55.9201C52.6548 55.561 53.351 55.2008 53.6774 54.43C54.0816 53.479 54.7283 52.8205 55.7035 52.4401C56.5828 52.1132 57.2994 51.455 57.7002 50.606C57.7911 50.4332 57.9466 50.3034 58.1327 50.2449C58.3375 50.1965 58.5289 50.1031 58.6931 49.9713C58.8572 49.8395 58.99 49.6727 59.0816 49.4831C59.3686 48.9399 59.8203 48.602 60.3639 48.3248C61.2461 47.8807 62.106 47.3749 62.9619 46.8691C63.8178 46.3633 64.1412 45.6551 63.9441 44.687ZM42.3194 49.2211C42.3121 49.2671 42.3013 49.3124 42.287 49.3567C42.2338 49.5219 42.1191 49.6603 41.9667 49.7431C41.9303 49.7625 41.8897 49.7729 41.8485 49.7735C41.8249 49.7749 41.8013 49.7749 41.7777 49.7735L41.7009 49.7654C41.5938 49.7502 41.4716 49.7229 41.3412 49.7128C41.2583 49.9586 41.1937 50.2186 41.2715 50.4543C41.3112 50.5685 41.381 50.6699 41.4736 50.7477C41.5632 50.8236 41.6636 50.8857 41.7717 50.9318L41.5635 51.0259L41.221 51.1796L41.0674 51.2484C40.9848 51.2836 40.9091 51.3332 40.844 51.3951C40.7911 51.4447 40.75 51.5055 40.7238 51.5731C40.644 51.7886 40.7117 52.0466 40.7551 52.2873C40.7836 52.4204 40.788 52.5574 40.7682 52.692C40.7599 52.736 40.747 52.7791 40.7298 52.8205C40.7131 52.8598 40.691 52.8965 40.6642 52.9297C40.6218 52.9817 40.5696 53.0246 40.5106 53.0562C40.4108 53.1069 40.3026 53.1388 40.1912 53.1503C40.1095 53.153 40.0302 53.1786 39.9623 53.2242C39.8944 53.2698 39.8407 53.3335 39.8073 53.4082C39.78 53.4662 39.759 53.5269 39.7446 53.5893C39.7356 53.6237 39.7244 53.6575 39.7113 53.6905C39.63 53.8534 39.5325 54.0076 39.4202 54.1508C39.3785 54.211 39.34 54.2735 39.305 54.3379C39.2383 54.4674 39.2383 54.6313 39.1888 54.8761L35.8633 55.2059C35.8332 55.2564 35.8218 55.3158 35.8309 55.3738C35.8336 55.3876 35.8373 55.4011 35.842 55.4143C35.8926 55.5579 36.0734 55.6834 36.2766 55.7896C36.3212 55.8131 36.3641 55.8398 36.4049 55.8695C36.4926 55.931 36.561 56.0163 36.6019 56.1153C36.617 56.1546 36.6278 56.1952 36.6343 56.2367C36.6382 56.2585 36.6405 56.2804 36.6413 56.3025C36.6452 56.4659 36.621 56.6288 36.5696 56.784L35.4116 56.0708L34.8548 55.7279L34.3111 55.393C34.2889 55.4052 34.2687 55.4143 34.2525 55.4214C34.228 55.4311 34.204 55.4422 34.1808 55.4548C34.1743 55.4582 34.169 55.4635 34.1656 55.4699C33.7614 56.3025 33.3198 57.1239 32.9581 57.9767C32.9466 58.0024 32.9365 58.0277 32.9278 58.0526C32.9086 58.1032 32.8914 58.1538 32.8762 58.2064C32.7925 58.4703 32.7967 58.7544 32.8883 59.0157C32.8974 59.043 32.9086 59.0703 32.9207 59.0986C32.946 59.1563 32.9754 59.2121 33.0086 59.2655C33.0642 59.3546 33.1177 59.4446 33.1703 59.5346C33.2228 59.6247 33.2713 59.7157 33.3269 59.8078C33.4279 59.9899 33.529 60.175 33.6301 60.3601C33.7786 60.6383 33.9231 60.9175 34.0686 61.1978C34.1171 61.2908 34.1697 61.3839 34.2151 61.476C34.2232 61.4911 34.2303 61.5063 34.2374 61.5215C34.2606 61.565 34.2818 61.6095 34.3041 61.651C34.3372 61.7332 34.3926 61.8046 34.4639 61.8572C34.5353 61.9097 34.6199 61.9413 34.7083 61.9484C34.7285 61.9484 34.7507 61.9484 34.7729 61.9484C34.7995 61.95 34.8246 61.9611 34.8437 61.9797C34.8609 61.9942 34.8765 62.0104 34.8901 62.0283C34.9063 62.0485 34.9225 62.0708 34.9387 62.0951C35.0104 62.2053 35.0872 62.3571 35.1731 62.4765C35.072 62.5382 34.9912 62.6009 34.9104 62.6545C34.872 62.6813 34.8322 62.7059 34.7911 62.7283C34.7528 62.7503 34.7126 62.7686 34.6709 62.783L34.4991 62.8416C34.4799 62.8477 34.4617 62.8548 34.4445 62.8619C34.41 62.8748 34.3763 62.8896 34.3435 62.9064C34.311 62.9224 34.2799 62.941 34.2505 62.962C34.2219 62.9832 34.1955 63.0073 34.1717 63.0339C34.1592 63.0475 34.1477 63.062 34.1373 63.0774C34.0755 63.1725 34.0406 63.2826 34.0363 63.396C34.0329 63.4794 34.0004 63.5589 33.9443 63.6206C33.914 63.653 33.8767 63.6779 33.8352 63.6934C33.7554 63.7206 33.6698 63.7251 33.5876 63.7066C33.5277 63.6936 33.4694 63.6739 33.4138 63.6479C33.3865 63.6348 33.3592 63.6236 33.3309 63.6125C33.3026 63.6014 33.2733 63.5913 33.244 63.5822C33.1571 63.5538 33.0682 63.5306 32.9803 63.5053C32.8923 63.4805 32.8062 63.4494 32.7226 63.4122L32.6681 63.3849C32.5542 63.3285 32.4551 63.246 32.379 63.1441C32.3683 63.1281 32.3588 63.1111 32.3508 63.0935C32.3134 63.0136 32.278 62.9337 32.2416 62.8528C32.1709 62.6909 32.1018 62.5287 32.0345 62.3662C31.8637 61.9615 31.6959 61.5508 31.5029 61.1522C31.4667 61.0829 31.4173 61.0214 31.3574 60.9712C31.2543 60.8797 31.1305 60.8148 30.9967 60.782C30.8276 60.7493 30.6611 60.7044 30.4985 60.6474C30.4212 60.6197 30.3462 60.5858 30.2742 60.5463C30.1529 60.4802 30.0455 60.3912 29.9579 60.2843C29.9206 60.2383 29.8869 60.1896 29.8568 60.1386C29.8254 60.0832 29.7994 60.0249 29.779 59.9646C29.7568 59.9029 29.7386 59.8381 29.7204 59.7693C29.685 59.6318 29.6527 59.479 29.6022 59.309L28.2491 59.0794C28.2158 59.2342 28.1834 59.3829 28.1481 59.5266C28.1127 59.6702 28.0864 59.8128 28.0561 59.9535L27.9066 59.9717C27.8944 59.9339 27.8813 59.8965 27.8672 59.8594C27.8399 59.7845 27.8116 59.7096 27.7914 59.6338C27.7809 59.5959 27.7728 59.5574 27.7671 59.5185C27.7601 59.4716 27.7475 59.4258 27.7297 59.3819C27.7093 59.3342 27.6846 59.2885 27.656 59.2453C27.6258 59.2001 27.592 59.1575 27.5549 59.1179C27.5182 59.0773 27.4783 59.0398 27.4357 59.0056C27.3944 58.973 27.3504 58.9439 27.3043 58.9186C27.2243 58.871 27.1326 58.8465 27.0395 58.8477C26.9982 58.8491 26.9577 58.8602 26.9213 58.8801C26.8991 58.8923 26.8779 58.9024 26.8577 58.9115C26.7656 58.9527 26.6655 58.9731 26.5646 58.9712C26.5101 58.9691 26.4559 58.9613 26.4029 58.9479L26.3514 58.9337C26.316 58.9236 26.2817 58.9115 26.2503 58.8983L26.1988 58.8791L26.0978 58.8366L26.0462 58.8164C25.8088 58.7213 25.5723 58.6252 25.3389 58.5281C24.6315 58.2367 23.9242 57.9393 23.2168 57.648C23.1705 57.6298 23.1229 57.6153 23.0743 57.6045C23.0258 57.5923 22.9733 57.5822 22.9288 57.569C22.9005 57.6955 22.8783 57.7896 22.8551 57.8574C22.8457 57.8858 22.8328 57.913 22.8167 57.9383C22.8081 57.9524 22.7966 57.9646 22.783 57.974C22.7695 57.9834 22.7541 57.9898 22.7378 57.9929C22.7257 57.994 22.7136 57.994 22.7015 57.9929C22.5704 57.9686 22.4432 57.9264 22.3235 57.8675C21.9406 57.7015 21.6056 57.4416 21.3494 57.1118C21.1817 56.9095 21.0271 56.7001 20.8623 56.4886C20.7613 56.3612 20.6602 56.2337 20.5531 56.1113C20.6574 56.0576 20.7586 55.9981 20.8563 55.9333C20.9139 55.897 20.9588 55.8436 20.9846 55.7805C20.999 55.7327 20.9957 55.6814 20.9755 55.6358C20.9272 55.5359 20.8583 55.4473 20.7734 55.3759C20.5168 55.1361 20.3561 54.7962 20.1742 54.4745C20.1126 54.3733 20.0499 54.2631 19.9792 54.1649C19.9246 54.088 19.8781 54.0203 19.8316 53.9626C19.677 53.7603 19.577 53.6713 19.4446 53.6753C19.3122 53.6794 19.1485 53.7765 18.8676 53.9505L18.2906 53.6672L17.7338 53.391C17.7581 53.3576 17.7813 53.3233 17.8056 53.2899C17.7702 53.3081 17.7358 53.3283 17.7045 53.3496C17.6257 53.4069 17.5384 53.4516 17.4458 53.4821C17.4282 53.4863 17.4103 53.489 17.3923 53.4902C17.171 53.5003 16.9487 53.5053 16.7264 53.5023C16.504 53.4993 16.2817 53.4881 16.0614 53.4689C16.048 53.4678 16.035 53.464 16.023 53.4578C15.93 53.3966 15.8561 53.3103 15.8098 53.2089C15.8011 53.1921 15.793 53.1759 15.7856 53.1604C15.638 52.8407 15.536 52.4978 15.3814 52.1832C15.3733 52.167 15.3642 52.1508 15.3541 52.1346C15.3097 52.0677 15.254 52.0092 15.1894 51.9616C15.1739 51.9498 15.1577 51.939 15.1409 51.9292C15.1093 51.9095 15.0754 51.8938 15.0398 51.8827C14.6599 51.7664 14.6356 51.4942 14.8377 51.2757C15.1308 50.9611 15.0792 50.6354 14.9984 50.3207C14.9832 50.2641 14.9671 50.2074 14.9529 50.1508C14.9294 50.069 14.9109 49.9859 14.8973 49.9019C14.8667 49.7496 14.801 49.6065 14.7054 49.4841C14.6771 49.445 14.6478 49.4056 14.6174 49.3658C14.5558 49.2859 14.4891 49.2039 14.4244 49.1189C14.3759 49.0552 14.3234 48.9894 14.282 48.9217L14.4153 48.9035L14.674 48.8681L14.8125 48.8488C14.8125 48.6151 14.8994 48.4958 15.0328 48.4331C15.0675 48.4175 15.1037 48.4053 15.1409 48.3966C15.2673 48.3712 15.3959 48.3586 15.5249 48.3592C15.7724 48.3511 16.021 48.3461 16.2686 48.341C16.7658 48.3309 17.2619 48.3218 17.7571 48.2945C18.0043 48.2816 18.2512 48.2624 18.4978 48.2368C18.6912 48.2144 18.8819 48.172 19.0667 48.1103C19.1293 48.0901 19.192 48.0689 19.2536 48.0456C19.5022 47.9546 19.7478 47.8433 19.9883 47.7421C20.1419 47.6753 20.2187 47.4305 20.3733 47.2059C20.0863 47.1655 19.9105 47.0825 19.8134 46.951C19.789 46.9184 19.7695 46.8822 19.7558 46.8438C19.7122 46.7037 19.7042 46.5548 19.7326 46.4108C19.7478 46.3097 19.67 46.1589 19.5659 46.0395C19.5095 45.972 19.4409 45.9158 19.3638 45.8736C18.9212 45.6521 18.4715 45.4447 18.0218 45.2393C17.5721 45.034 17.1215 44.8276 16.6768 44.6111C16.5965 44.5662 16.5274 44.5036 16.4747 44.428C16.4202 44.3633 16.3892 44.282 16.3868 44.1974C16.3949 44.1053 16.405 44.0143 16.4161 43.9232C16.4707 43.467 16.5495 43.0128 16.6101 42.5585C16.6334 42.3764 16.6546 42.1944 16.6708 42.0113C16.7435 41.1372 17.3195 40.6061 17.8884 40.0629C17.9561 39.9957 18.0291 39.9342 18.1067 39.8787C18.1354 39.8591 18.1655 39.8415 18.1966 39.8261C18.2429 39.8009 18.2938 39.7854 18.3462 39.7806C18.4845 39.7813 18.6198 39.74 18.7342 39.6623C18.7793 39.6283 18.818 39.5865 18.8484 39.5388C18.869 39.5068 18.8866 39.4729 18.901 39.4377C18.908 39.4185 18.9151 39.3992 18.9212 39.38C18.946 39.2918 18.9619 39.2013 18.9687 39.1099C18.9838 38.9217 18.9838 38.7214 18.9889 38.5242C18.9889 38.423 18.997 38.3218 19.0061 38.2318C19.0061 38.2005 19.0121 38.1691 19.0162 38.1377C19.0332 37.9616 19.0895 37.7915 19.1809 37.64C19.21 37.5963 19.2439 37.5559 19.2819 37.5196C19.3437 37.4632 19.4115 37.4137 19.484 37.3719C19.7599 37.2111 20.1297 37.1109 20.4228 36.9582C20.4749 36.93 20.5252 36.8986 20.5733 36.8641L20.6542 36.8054L20.7471 36.7407C20.7209 36.6982 20.6956 36.6567 20.6693 36.6162L20.5178 36.3724L20.4379 36.245L20.4864 36.1661C20.5344 36.0813 20.5895 36.0007 20.6512 35.9253C20.7271 35.8259 20.8288 35.7493 20.9452 35.7038C20.9588 35.7004 20.9727 35.6981 20.9866 35.6967C21.0004 35.6952 21.0143 35.6952 21.0281 35.6967C21.1291 35.7058 21.2221 35.7796 21.3191 35.9496C21.3601 36.0328 21.4163 36.1076 21.4848 36.1701C21.503 36.1847 21.5235 36.1959 21.5454 36.2035C21.5677 36.2086 21.5909 36.2086 21.6131 36.2035C21.6839 36.1914 21.7647 36.1276 21.8627 35.9911C21.9215 35.9175 21.9966 35.8586 22.082 35.8191C22.172 35.7746 22.273 35.7371 22.373 35.6997C22.4387 35.6744 22.5044 35.6491 22.565 35.6208C23.0551 35.3902 23.5402 35.1484 24.0343 34.9278C24.199 34.854 24.3647 34.7822 24.5325 34.7144C24.5759 34.6972 24.6164 34.679 24.6548 34.6598C24.7981 34.5898 24.922 34.4856 25.0155 34.3563C25.0875 34.2528 25.143 34.1388 25.1802 34.0184C25.1891 33.9918 25.1996 33.9658 25.2115 33.9405C25.2671 33.8312 25.3433 33.7336 25.4359 33.6532C25.4796 33.6136 25.5282 33.5796 25.5804 33.552C25.6039 33.5395 25.6286 33.5293 25.6541 33.5217C25.6618 33.5202 25.6697 33.5202 25.6774 33.5217C25.7956 33.5217 25.9805 33.7938 26.1554 33.8808C26.2049 33.9061 26.2564 33.9314 26.311 33.9547C26.3646 33.98 26.4196 34.0022 26.4757 34.0214C26.5556 34.049 26.6389 34.0654 26.7233 34.07C26.7498 34.072 26.7765 34.072 26.8031 34.07L27.0406 34.0447C27.3568 34.0093 27.6762 33.9607 28.0137 33.9071L28.5341 33.8252L28.8079 33.7827C28.7766 34.8307 28.7564 35.8343 28.7129 36.8358C28.7049 37.0179 28.6958 37.1989 28.6846 37.381C28.6624 37.7462 28.6361 38.1145 28.6089 38.4938C28.5961 38.6833 28.5829 38.8749 28.5695 39.0684H29.2869L29.3344 39.1858L28.7817 39.5024L28.6806 39.5611C28.7726 39.6916 28.8665 39.818 28.9565 39.9445C29.0019 40.0072 29.0464 40.0709 29.0899 40.1347C29.1333 40.1984 29.1758 40.2632 29.2162 40.3289C29.2364 40.3633 29.2576 40.3997 29.2768 40.4372C29.2869 40.4564 29.296 40.4756 29.3051 40.4948C29.3502 40.5874 29.3756 40.6883 29.3799 40.7912C29.3734 40.8823 29.3869 40.9736 29.4194 41.0588C29.4519 41.1441 29.5025 41.2213 29.5678 41.2849C29.6285 41.3403 29.6987 41.3841 29.775 41.4144C29.8581 41.4475 29.9445 41.4716 30.0327 41.4862C30.9084 41.6407 31.7842 41.7924 32.66 41.9414C33.5357 42.0905 34.4115 42.2385 35.2873 42.3856C35.4065 42.4048 35.5258 42.424 35.644 42.4412C35.7622 42.4584 35.8804 42.4756 35.9956 42.4918L36.3372 42.5393L36.6616 42.5838L36.2846 42.9217L35.8966 43.2697L35.7248 42.9268C35.7188 42.9683 35.7147 43.0077 35.7097 43.0451L35.6723 43.3426C35.6571 43.4589 35.645 43.5601 35.6319 43.6622C35.6116 43.647 35.5904 43.6309 35.5702 43.6137C35.5288 43.5793 35.4884 43.5429 35.4479 43.5064C35.4075 43.47 35.3661 43.4356 35.3257 43.4053C35.2725 43.363 35.2083 43.337 35.1408 43.3304C35.0397 43.3304 34.9386 43.4043 34.8275 43.4923L34.7628 43.5449C34.7184 43.5813 34.6739 43.6157 34.6294 43.646C34.6072 43.2717 34.4415 43.0279 34.0716 43.0219C33.9742 43.021 33.8771 43.0326 33.7826 43.0563V43.9667L34.9245 44.2652C34.5728 44.9086 34.2717 45.4599 33.9756 46.0001C34.1141 46.0669 34.2303 46.1326 34.3384 46.1883L34.4172 46.2287C34.4916 46.2656 34.5691 46.296 34.6486 46.3198C34.7497 46.3491 34.8507 46.3946 34.9579 46.4331C35.0389 46.465 35.1233 46.4874 35.2095 46.4998C35.2518 46.5046 35.2945 46.5046 35.3368 46.4998C35.4605 46.4858 35.576 46.431 35.6652 46.344C35.7051 46.3147 35.7516 46.2956 35.8006 46.2884C35.819 46.2844 35.8375 46.2814 35.8562 46.2793H35.9097C35.9256 46.2782 35.9414 46.2782 35.9572 46.2793C35.9696 46.2806 35.9818 46.2833 35.9936 46.2874C36.0022 46.2905 36.0098 46.2957 36.0158 46.3026C36.0244 46.3159 36.0322 46.3298 36.0391 46.344C36.0752 46.4244 36.0928 46.5119 36.0906 46.6C36.0902 46.6338 36.0879 46.6676 36.0835 46.7011C36.0699 46.792 36.0479 46.8814 36.0179 46.9682L35.9704 47.1088C35.9532 47.1574 35.937 47.21 35.9198 47.2616L36.6464 47.4123L37.1021 47.5074C37.2406 47.1098 36.5443 46.6516 37.2578 46.2662L38.1227 47.7795H38.1521C38.1702 47.7814 38.1885 47.7814 38.2066 47.7795C38.2121 47.7791 38.2171 47.7766 38.2208 47.7725L38.2814 47.6855C38.5047 47.3749 38.7533 47.1736 39.0777 47.2515C39.2197 47.2904 39.3517 47.3594 39.4647 47.4538C39.5011 47.4791 39.5437 47.4942 39.588 47.4973C39.6668 47.5064 39.7608 47.4973 39.8436 47.5104C39.8497 47.5297 39.8739 47.5631 39.8679 47.5883C39.8174 47.7967 39.7668 48.0051 39.7082 48.2125C39.8851 48.2449 40.0609 48.2914 40.2387 48.3137C40.2974 48.3228 40.357 48.3299 40.4156 48.3339C40.5429 48.342 40.6702 48.3461 40.7986 48.3501C41.0532 48.3572 41.3089 48.3592 41.5625 48.3713C41.6898 48.3774 41.8171 48.3865 41.9435 48.3987C42.015 48.4164 42.082 48.4489 42.1403 48.494C42.1986 48.5391 42.2468 48.5959 42.282 48.6607C42.2899 48.6762 42.2954 48.693 42.2981 48.7102L42.3103 48.7821C42.3173 48.8316 42.3224 48.8832 42.3264 48.9287C42.3305 48.9743 42.3264 49.0299 42.3264 49.0744C42.3267 49.1235 42.3236 49.1725 42.3173 49.2211H42.3194Z" fill="#FDFDFD" fill-opacity="0.1" stroke="#F2F9FF" stroke-width="2" mask="url(#path-163-inside-1_125_7852)"/>
</svg>
