<svg width="64" height="64" viewBox="0 0 64 64" fill="none" xmlns="http://www.w3.org/2000/svg">
<path d="M54.8571 34.2858V25.143C54.8571 23.9305 54.3754 22.7678 53.5181 21.9105C52.6608 21.0532 51.4981 20.5715 50.2856 20.5715H6.85707C5.64465 20.5715 4.48189 21.0532 3.62459 21.9105C2.76728 22.7678 2.28564 23.9305 2.28564 25.143V57.143C2.28564 58.3554 2.76728 59.5181 3.62459 60.3754C4.48189 61.2328 5.64465 61.7144 6.85707 61.7144H50.2856C51.4981 61.7144 52.6608 61.2328 53.5181 60.3754C54.3754 59.5181 54.8571 58.3554 54.8571 57.143V45.7144" stroke="#42A5F5" stroke-width="1.71429" stroke-linecap="round" stroke-linejoin="round"/>
<path d="M17.5542 9.14287L43.4742 2.37716C43.7655 2.29509 44.0703 2.27289 44.3704 2.3119C44.6705 2.35091 44.9596 2.45031 45.2202 2.60411C45.4808 2.75791 45.7075 2.96292 45.8867 3.20676C46.0659 3.4506 46.1938 3.72823 46.2628 4.02287L47.5428 9.14287" stroke="#42A5F5" stroke-width="1.71429" stroke-linecap="round" stroke-linejoin="round"/>
<path d="M59.4286 34.2856H48.0001C46.7377 34.2856 45.7144 35.309 45.7144 36.5714V43.4285C45.7144 44.6909 46.7377 45.7142 48.0001 45.7142H59.4286C60.691 45.7142 61.7144 44.6909 61.7144 43.4285V36.5714C61.7144 35.309 60.691 34.2856 59.4286 34.2856Z" stroke="#42A5F5" stroke-width="1.71429" stroke-linecap="round" stroke-linejoin="round"/>
</svg>
