<svg width="49" height="49" viewBox="0 0 49 49" fill="none" xmlns="http://www.w3.org/2000/svg">
<rect x="0.96582" y="0.797363" width="48.0343" height="48" rx="24" fill="#42A5F5"/>
<path fill-rule="evenodd" clip-rule="evenodd" d="M15.6043 13.5688C16.1101 13.0743 16.7894 12.7974 17.4968 12.7974C18.2042 12.7974 18.8835 13.0743 19.3893 13.5688L19.3962 13.5755L22.6569 16.8363C23.1514 17.3394 23.4284 18.0165 23.4284 18.7219C23.4284 19.4272 23.1513 20.1044 22.6569 20.6074L22.0459 20.0069L22.6472 20.6171C22.5566 20.7064 22.4847 20.8128 22.4356 20.9301C22.3865 21.0475 22.3612 21.1734 22.3612 21.3006C22.3612 21.4278 22.3865 21.5537 22.4356 21.671C22.4847 21.7883 22.5566 21.8947 22.6472 21.984L22.6517 21.9884L27.788 27.1247C27.9733 27.3044 28.2214 27.405 28.4797 27.405C28.7394 27.405 28.9888 27.3034 29.1745 27.1218L29.7734 27.7344L29.1729 27.1234C29.6759 26.629 30.3531 26.352 31.0584 26.352C31.7638 26.352 32.4409 26.629 32.944 27.1234L32.9461 27.1255L36.2187 30.3638L36.2287 30.3739C36.7232 30.8797 37.0001 31.559 37.0001 32.2664C37.0001 32.9738 36.7232 33.6531 36.2287 34.1589L36.215 34.1726L35.4493 34.9213C34.4298 35.9519 33.0869 36.6009 31.6458 36.7594C30.202 36.9183 28.7475 36.5751 27.527 35.7877L27.9914 35.0678L27.5122 35.778C22.1855 32.1836 17.5946 27.6045 13.9865 22.2871L13.9755 22.2705C13.1881 21.0499 12.8449 19.5955 13.0037 18.1517C13.1623 16.7105 13.8113 15.3677 14.8419 14.3482L15.5906 13.5824L15.6043 13.5688ZM28.463 34.3525C29.3513 34.9233 30.4087 35.1718 31.4584 35.0563C32.511 34.9405 33.4915 34.4659 34.2352 33.7122L34.2461 33.7014L35.0092 32.9552C35.1872 32.7702 35.2867 32.5233 35.2867 32.2664C35.2867 32.0087 35.1866 31.7612 35.0077 31.576L31.743 28.3454L31.742 28.3445C31.5595 28.1656 31.3141 28.0654 31.0584 28.0654C30.8023 28.0654 30.5565 28.1659 30.3739 28.3454L29.7734 27.7344L30.3723 28.347C29.8664 28.8415 29.1871 29.1184 28.4797 29.1184C27.7723 29.1184 27.0931 28.8415 26.5872 28.347L26.5803 28.3402L21.4421 23.202L21.4446 23.2044L22.0459 22.5942L21.4401 23.2L21.4421 23.202C21.1909 22.9538 20.9914 22.6583 20.855 22.3325C20.7182 22.0056 20.6478 21.6549 20.6478 21.3006C20.6478 20.9463 20.7182 20.5955 20.855 20.2687C20.9907 19.9444 21.189 19.6502 21.4385 19.4028C21.6157 19.2205 21.715 18.9762 21.715 18.7219C21.715 18.4668 21.6152 18.222 21.4371 18.0396L18.1886 14.7911C18.0032 14.6113 17.7551 14.5108 17.4968 14.5108C17.2398 14.5108 16.993 14.6103 16.8079 14.7883L16.0618 15.5513L16.051 15.5622C15.2973 16.3059 14.8227 17.2865 14.7069 18.339C14.5914 19.3884 14.8397 20.4454 15.4101 21.3336C18.893 26.4642 23.3233 30.8829 28.463 34.3525Z" fill="#EEEEEE"/>
</svg>
