<svg width="78" height="147" viewBox="0 0 78 147" fill="none" xmlns="http://www.w3.org/2000/svg">
<path d="M4.80402 128.848L3.05098 130.687V134.009H0.0460986V120.872H3.05098V127.005L8.84245 120.867H12.1948L6.78203 126.727L12.5134 134.009H8.98501L4.80402 128.848Z" fill="#757575"/>
<path d="M14.0437 120.872H17.0664V134.009H14.0437V120.872Z" fill="#757575"/>
<path d="M32.332 120.872V134.009H29.8506L23.3374 126.033V134.009H20.3503V120.872H22.8518L29.3472 128.848V120.872H32.332Z" fill="#757575"/>
<path d="M45.7321 131.57V134.009H35.6282V120.872H45.5005V123.311H38.622V126.165H44.6874V128.53H38.622V131.57H45.7321Z" fill="#757575"/>
<path d="M51.0313 123.349H46.8525V120.872H58.2372V123.349H54.0562V134.009H51.0313V123.349Z" fill="#757575"/>
<path d="M60.0471 120.872H63.0698V134.009H60.0471V120.872Z" fill="#757575"/>
<path d="M68.9965 133.362C67.9452 132.804 67.0667 131.967 66.4572 130.941C65.8514 129.875 65.5328 128.668 65.5328 127.441C65.5328 126.213 65.8514 125.007 66.4572 123.941C67.0667 122.915 67.9452 122.077 68.9965 121.519C70.029 120.996 71.161 120.701 72.3163 120.655C73.4716 120.608 74.6235 120.81 75.6945 121.248C76.5882 121.631 77.3784 122.223 78 122.973L76.0599 124.765C75.6625 124.277 75.1607 123.885 74.5918 123.618C74.023 123.352 73.4018 123.218 72.7743 123.226C72.0186 123.212 71.2723 123.397 70.6092 123.762C69.9843 124.108 69.4699 124.625 69.1257 125.253C68.7767 125.925 68.5945 126.672 68.5945 127.431C68.5945 128.189 68.7767 128.936 69.1257 129.608C69.4712 130.235 69.9853 130.752 70.6092 131.1C71.2729 131.463 72.0189 131.646 72.7743 131.633C73.4044 131.639 74.0276 131.501 74.5969 131.23C75.1661 130.958 75.6664 130.56 76.0599 130.065L78 131.857C77.3808 132.619 76.5865 133.219 75.6856 133.604C74.7129 134.025 73.6642 134.24 72.605 134.236C71.3484 134.253 70.1074 133.953 68.9965 133.362Z" fill="#757575"/>
<path d="M0.890996 146.81C0.569551 146.725 0.267171 146.579 0 146.38L0.385356 145.648C0.629705 145.824 0.901448 145.958 1.18948 146.044C1.5037 146.14 1.83013 146.189 2.15844 146.19C2.96627 146.19 3.37019 145.957 3.37019 145.493C3.37343 145.423 3.36041 145.354 3.33218 145.29C3.30394 145.226 3.26128 145.17 3.20758 145.126C3.08692 145.031 2.94702 144.963 2.79773 144.929C2.63512 144.888 2.40346 144.841 2.10275 144.79C1.76266 144.741 1.4268 144.666 1.09815 144.566C0.842964 144.485 0.612833 144.339 0.429905 144.142C0.232644 143.909 0.132858 143.608 0.151469 143.302C0.146582 143.082 0.196853 142.864 0.297663 142.668C0.398473 142.473 0.546587 142.305 0.728389 142.182C1.18587 141.88 1.72751 141.732 2.27427 141.761C2.61736 141.762 2.95912 141.804 3.29223 141.887C3.58754 141.952 3.86991 142.066 4.12754 142.225L3.7355 142.96C3.29585 142.682 2.78457 142.54 2.26536 142.552C1.95621 142.533 1.64797 142.601 1.37436 142.747C1.28191 142.796 1.20447 142.869 1.15033 142.959C1.09618 143.049 1.06737 143.152 1.06697 143.258C1.06347 143.333 1.07733 143.408 1.10748 143.476C1.13763 143.545 1.18323 143.606 1.24071 143.654C1.36393 143.76 1.50937 143.837 1.66616 143.878C1.83768 143.923 2.07602 143.974 2.38341 144.033C2.719 144.086 3.05083 144.161 3.37687 144.257C3.62558 144.333 3.84935 144.476 4.02507 144.669C4.21673 144.893 4.31346 145.184 4.2946 145.48C4.29849 145.699 4.24627 145.916 4.14293 146.11C4.03958 146.304 3.88857 146.468 3.70431 146.586C3.22114 146.884 2.65955 147.026 2.09384 146.996C1.68606 146.993 1.28089 146.93 0.890996 146.81Z" fill="#757575"/>
<path d="M17.911 146.622C17.7652 146.745 17.5952 146.836 17.4121 146.889C17.2128 146.95 17.0056 146.981 16.7973 146.98C16.5811 146.994 16.3644 146.964 16.1598 146.893C15.9552 146.821 15.7668 146.709 15.6056 146.564C15.4584 146.405 15.3451 146.218 15.2727 146.014C15.2003 145.81 15.1703 145.593 15.1846 145.377V142.566H14.3203V141.804H15.1846V140.684H16.1067V141.804H17.5657V142.566H16.1067V145.339C16.0909 145.569 16.1643 145.797 16.3117 145.975C16.3892 146.052 16.4821 146.112 16.5842 146.15C16.6863 146.189 16.7953 146.205 16.9042 146.199C17.1645 146.206 17.4191 146.121 17.6237 145.959L17.911 146.622Z" fill="#757575"/>
<path d="M33.3762 141.804V146.923H32.5097V146.15C32.3224 146.416 32.0689 146.627 31.7746 146.764C31.4642 146.912 31.1247 146.988 30.7811 146.988C30.4899 147.004 30.1982 146.963 29.9229 146.865C29.6477 146.768 29.3943 146.617 29.1773 146.421C28.7883 146.045 28.593 145.49 28.5915 144.757V141.804H29.5137V144.642C29.4854 145.048 29.613 145.449 29.8701 145.762C30.0036 145.894 30.1629 145.995 30.3378 146.061C30.5128 146.127 30.6995 146.155 30.8858 146.143C31.0986 146.154 31.3112 146.119 31.51 146.042C31.7087 145.965 31.8892 145.847 32.0397 145.695C32.3396 145.349 32.4916 144.897 32.4629 144.439V141.804H33.3762Z" fill="#757575"/>
<path d="M49.5412 139.755V146.922H48.6502V146.112C48.4497 146.39 48.1822 146.613 47.8728 146.759C47.5476 146.91 47.193 146.987 46.8348 146.983C46.3684 146.992 45.9076 146.879 45.4983 146.654C45.1122 146.439 44.7941 146.119 44.5806 145.731C44.3625 145.31 44.2487 144.842 44.2487 144.367C44.2487 143.892 44.3625 143.424 44.5806 143.003C44.795 142.617 45.113 142.299 45.4983 142.086C45.9076 141.861 46.3684 141.748 46.8348 141.757C47.1821 141.753 47.5261 141.824 47.8439 141.965C48.1471 142.101 48.4114 142.311 48.6123 142.577V139.755H49.5412ZM47.7926 145.941C48.0538 145.793 48.2671 145.572 48.4074 145.305C48.5524 145.013 48.6278 144.69 48.6278 144.363C48.6278 144.036 48.5524 143.714 48.4074 143.421C48.2673 143.155 48.0539 142.935 47.7926 142.788C47.5231 142.642 47.222 142.566 46.9161 142.566C46.6102 142.566 46.3091 142.642 46.0396 142.788C45.7796 142.937 45.5665 143.156 45.4248 143.421C45.2769 143.713 45.1999 144.036 45.1999 144.363C45.1999 144.691 45.2769 145.013 45.4248 145.305C45.5671 145.571 45.7799 145.791 46.0396 145.941C46.3077 146.091 46.6094 146.17 46.9161 146.17C47.2228 146.17 47.5245 146.091 47.7926 145.941Z" fill="#757575"/>
<path d="M60.9079 140.644C60.8505 140.589 60.805 140.523 60.7743 140.45C60.7437 140.377 60.7285 140.298 60.7297 140.218C60.729 140.138 60.7445 140.059 60.7751 139.985C60.8057 139.911 60.8509 139.844 60.9079 139.788C60.9663 139.73 61.0359 139.684 61.1125 139.654C61.1891 139.623 61.2711 139.609 61.3534 139.611C61.5181 139.606 61.6782 139.667 61.7989 139.779C61.8565 139.833 61.9022 139.898 61.9329 139.971C61.9637 140.043 61.9787 140.122 61.9771 140.2C61.9798 140.283 61.9654 140.366 61.9347 140.443C61.9041 140.52 61.8578 140.59 61.7989 140.648C61.7407 140.707 61.6712 140.753 61.5946 140.784C61.518 140.815 61.4359 140.83 61.3534 140.828C61.2707 140.829 61.1885 140.813 61.112 140.782C61.0354 140.75 60.966 140.703 60.9079 140.644ZM60.8946 141.804H61.8167V146.923H60.8946V141.804Z" fill="#757575"/>
<path d="M73.995 146.643C73.6003 146.425 73.2728 146.103 73.0483 145.711C72.8258 145.298 72.7093 144.836 72.7093 144.367C72.7093 143.898 72.8258 143.436 73.0483 143.023C73.2714 142.631 73.5994 142.31 73.995 142.096C74.4159 141.876 74.883 141.762 75.3571 141.762C75.8312 141.762 76.2983 141.876 76.7192 142.096C77.112 142.311 77.4374 142.632 77.6592 143.023C77.8816 143.436 77.9981 143.898 77.9981 144.367C77.9981 144.836 77.8816 145.298 77.6592 145.711C77.4357 146.101 77.1108 146.424 76.7192 146.643C76.2991 146.865 75.8317 146.981 75.3571 146.981C74.8825 146.981 74.415 146.865 73.995 146.643ZM76.2381 145.942C76.4969 145.791 76.7084 145.571 76.8484 145.305C76.9933 145.013 77.0688 144.69 77.0688 144.364C77.0688 144.037 76.9933 143.714 76.8484 143.422C76.7095 143.156 76.4976 142.936 76.2381 142.788C75.9678 142.642 75.6659 142.566 75.3593 142.566C75.0527 142.566 74.7509 142.642 74.4806 142.788C74.2205 142.937 74.0075 143.157 73.8658 143.422C73.7179 143.713 73.6408 144.036 73.6408 144.364C73.6408 144.691 73.7179 145.014 73.8658 145.305C74.008 145.571 74.2209 145.791 74.4806 145.942C74.7495 146.091 75.0519 146.17 75.3593 146.17C75.6667 146.17 75.9691 146.091 76.2381 145.942Z" fill="#757575"/>
<path d="M75.299 0L30.7626 48.1835L77.9097 108.104V0H75.299Z" fill="#757575"/>
<path d="M47.6542 0H0.0460986V50.4996L47.6542 0Z" fill="#757575"/>
<path d="M0.0460986 80.7703V108.104H48.8816L14.4825 65.6327L0.0460986 80.7703Z" fill="#757575"/>
</svg>
